Paribartan-Regular.ufo
<glyph name="dollar" format="2">
  <advance width="519"/>
  <unicode hex="0024"/>
  <outline>
    <contour>
      <point x="243" y="586" type="line"/>
      <point x="234" y="577"/>
      <point x="227" y="565" type="qcurve"/>
      <point x="202" y="524"/>
      <point x="222" y="475" type="qcurve"/>
      <point x="231" y="456"/>
      <point x="243" y="443" type="qcurve"/>
    </contour>
    <contour>
      <point x="50" y="57" type="qcurve"/>
      <point x="125" y="182" type="line"/>
      <point x="133" y="176"/>
      <point x="147" y="167" type="qcurve"/>
      <point x="185" y="145"/>
      <point x="228" y="155" type="qcurve"/>
      <point x="236" y="157"/>
      <point x="243" y="160" type="qcurve"/>
      <point x="243" y="310" type="line"/>
      <point x="233" y="313"/>
      <point x="222" y="315" type="qcurve"/>
      <point x="173" y="342"/>
      <point x="101" y="408"/>
      <point x="59" y="490"/>
      <point x="65" y="588"/>
      <point x="96" y="639" type="qcurve"/>
      <point x="147" y="723"/>
      <point x="243" y="758" type="qcurve"/>
      <point x="243" y="1030" type="line"/>
      <point x="322" y="1030" type="line"/>
      <point x="322" y="774" type="line"/>
      <point x="393" y="777"/>
      <point x="448" y="727" type="qcurve"/>
      <point x="451" y="724"/>
      <point x="466" y="715"/>
      <point x="469" y="712" type="qcurve"/>
      <point x="394" y="587" type="line"/>
      <point x="382" y="597"/>
      <point x="372" y="602" type="qcurve"/>
      <point x="348" y="615"/>
      <point x="322" y="616" type="qcurve"/>
      <point x="322" y="401" type="line"/>
      <point x="351" y="383"/>
      <point x="373" y="366" type="qcurve"/>
      <point x="406" y="339"/>
      <point x="455" y="269"/>
      <point x="452" y="181"/>
      <point x="422" y="130" type="qcurve"/>
      <point x="387" y="71"/>
      <point x="322" y="32" type="qcurve"/>
      <point x="322" y="-182" type="line"/>
      <point x="243" y="-182" type="line"/>
      <point x="243" y="0" type="line"/>
      <point x="217" y="-6"/>
      <point x="192" y="-6" type="qcurve"/>
      <point x="125" y="-7"/>
      <point x="71" y="42" type="qcurve"/>
      <point x="68" y="45"/>
      <point x="53" y="54"/>
    </contour>
  </outline>
</glyph>
<glyph name="eight" format="2">
  <advance width="558"/>
  <unicode hex="0038"/>
  <outline>
    <contour>
      <point x="278" y="3" type="line"/>
      <point x="277" y="3" type="line"/>
      <point x="276" y="3"/>
      <point x="274" y="3" type="qcurve"/>
      <point x="267" y="3"/>
      <point x="262" y="4" type="qcurve"/>
      <point x="172" y="10"/>
      <point x="50" y="140"/>
      <point x="50" y="229" type="qcurve"/>
      <point x="50" y="304"/>
      <point x="94" y="364" type="qcurve"/>
      <point x="50" y="423"/>
      <point x="50" y="498" type="qcurve"/>
      <point x="50" y="588"/>
      <point x="172" y="718"/>
      <point x="262" y="724" type="qcurve"/>
      <point x="267" y="725"/>
      <point x="274" y="725" type="qcurve"/>
      <point x="276" y="725"/>
      <point x="277" y="725" type="qcurve"/>
      <point x="278" y="725" type="line"/>
      <point x="279" y="725"/>
      <point x="281" y="725" type="qcurve"/>
      <point x="375" y="725"/>
      <point x="508" y="592"/>
      <point x="508" y="498" type="qcurve"/>
      <point x="508" y="423"/>
      <point x="464" y="364" type="qcurve"/>
      <point x="508" y="304"/>
      <point x="508" y="229" type="qcurve"/>
      <point x="508" y="136"/>
      <point x="375" y="3"/>
      <point x="281" y="3" type="qcurve"/>
      <point x="280" y="3"/>
      <point x="279" y="3" type="qcurve" smooth="yes"/>
    </contour>
    <contour>
      <point x="279" y="592" type="qcurve"/>
      <point x="268" y="592"/>
      <point x="258" y="589" type="qcurve"/>
      <point x="258" y="590" type="line"/>
      <point x="225" y="583"/>
      <point x="183" y="532"/>
      <point x="183" y="498" type="qcurve"/>
      <point x="183" y="464"/>
      <point x="225" y="413"/>
      <point x="258" y="406" type="qcurve"/>
      <point x="258" y="407" type="line"/>
      <point x="268" y="405"/>
      <point x="279" y="404" type="qcurve"/>
      <point x="290" y="405"/>
      <point x="300" y="407" type="qcurve"/>
      <point x="300" y="406" type="line"/>
      <point x="333" y="413"/>
      <point x="375" y="464"/>
      <point x="375" y="498" type="qcurve"/>
      <point x="375" y="532"/>
      <point x="333" y="583"/>
      <point x="300" y="590" type="qcurve"/>
      <point x="300" y="589" type="line"/>
      <point x="290" y="592"/>
    </contour>
    <contour>
      <point x="279" y="324" type="qcurve"/>
      <point x="268" y="323"/>
      <point x="258" y="321" type="qcurve"/>
      <point x="258" y="322" type="line"/>
      <point x="225" y="315"/>
      <point x="183" y="264"/>
      <point x="183" y="229" type="qcurve"/>
      <point x="183" y="196"/>
      <point x="225" y="145"/>
      <point x="258" y="138" type="qcurve"/>
      <point x="258" y="139" type="line"/>
      <point x="268" y="136"/>
      <point x="279" y="136" type="qcurve"/>
      <point x="290" y="136"/>
      <point x="300" y="139" type="qcurve"/>
      <point x="300" y="138" type="line"/>
      <point x="333" y="145"/>
      <point x="375" y="196"/>
      <point x="375" y="229" type="qcurve"/>
      <point x="375" y="264"/>
      <point x="333" y="315"/>
      <point x="300" y="322" type="qcurve"/>
      <point x="300" y="321" type="line"/>
      <point x="290" y="323"/>
    </contour>
  </outline>
</glyph>
<glyph name="nine" format="2">
  <advance width="709"/>
  <unicode hex="0039"/>
  <outline>
    <contour>
      <point x="326" y="391" type="qcurve"/>
      <point x="337" y="391"/>
      <point x="350" y="394" type="qcurve"/>
      <point x="350" y="393" type="line"/>
      <point x="387" y="401"/>
      <point x="435" y="459"/>
      <point x="435" y="498" type="qcurve"/>
      <point x="435" y="552"/>
      <point x="391" y="584" type="qcurve"/>
      <point x="376" y="593"/>
      <point x="359" y="600" type="qcurve"/>
      <point x="354" y="601"/>
      <point x="350" y="602" type="qcurve"/>
      <point x="350" y="601" type="line"/>
      <point x="339" y="604"/>
      <point x="326" y="604" type="qcurve"/>
      <point x="314" y="604"/>
      <point x="302" y="601" type="qcurve"/>
      <point x="302" y="602" type="line"/>
      <point x="265" y="594"/>
      <point x="217" y="536"/>
      <point x="217" y="498" type="qcurve"/>
      <point x="217" y="459"/>
      <point x="265" y="401"/>
      <point x="302" y="393" type="qcurve"/>
      <point x="302" y="394" type="line"/>
      <point x="314" y="391"/>
    </contour>
    <contour>
      <point x="277" y="146" type="qcurve"/>
      <point x="362" y="146"/>
      <point x="490" y="258"/>
      <point x="503" y="342" type="qcurve"/>
      <point x="433" y="266"/>
      <point x="330" y="259" type="qcurve"/>
      <point x="322" y="258"/>
      <point x="316" y="258" type="qcurve"/>
      <point x="313" y="258"/>
      <point x="312" y="258" type="qcurve"/>
      <point x="311" y="258" type="line"/>
      <point x="310" y="258"/>
      <point x="308" y="258" type="qcurve"/>
      <point x="217" y="258"/>
      <point x="76" y="371"/>
      <point x="56" y="458" type="qcurve"/>
      <point x="50" y="486"/>
      <point x="50" y="516" type="qcurve"/>
      <point x="50" y="556"/>
      <point x="62" y="594" type="qcurve"/>
      <point x="92" y="688"/>
      <point x="178" y="738" type="qcurve"/>
      <point x="227" y="772"/>
      <point x="277" y="772" type="qcurve"/>
      <point x="281" y="772"/>
      <point x="284" y="772" type="qcurve"/>
      <point x="296" y="773"/>
      <point x="308" y="773" type="qcurve"/>
      <point x="309" y="773"/>
      <point x="310" y="773" type="qcurve" smooth="yes"/>
      <point x="311" y="773" type="line"/>
      <point x="312" y="773" type="line"/>
      <point x="314" y="773"/>
      <point x="316" y="773" type="qcurve"/>
      <point x="324" y="773"/>
      <point x="330" y="772" type="qcurve"/>
      <point x="410" y="766"/>
      <point x="472" y="717" type="qcurve"/>
      <point x="557" y="665"/>
      <point x="659" y="485"/>
      <point x="659" y="378" type="qcurve"/>
      <point x="659" y="215"/>
      <point x="435" y="-15"/>
      <point x="277" y="-15" type="qcurve"/>
      <point x="194" y="-15"/>
      <point x="158" y="-8" type="qcurve"/>
      <point x="158" y="158" type="line"/>
      <point x="173" y="153"/>
      <point x="253" y="146"/>
    </contour>
  </outline>
</glyph>
<glyph name="at" format="2">
  <advance width="876"/>
  <unicode hex="0040"/>
  <outline>
    <contour>
      <point x="567.555" y="236" type="line"/>
    </contour>
    <contour>
      <point x="530.555" y="166" type="line"/>
    </contour>
    <contour>
      <point x="493.555" y="228" type="qcurve"/>
      <point x="479.555" y="239" type="line"/>
      <point x="425.555" y="239"/>
      <point x="349.555" y="314"/>
      <point x="349.555" y="368" type="qcurve"/>
      <point x="349.555" y="421"/>
      <point x="425.555" y="492"/>
      <point x="479.555" y="492" type="qcurve"/>
      <point x="491.555" y="492" type="line"/>
      <point x="567.555" y="492" type="line"/>
      <point x="574.555" y="318" type="line"/>
      <point x="576.555" y="306"/>
      <point x="603.555" y="278"/>
      <point x="636.555" y="263"/>
      <point x="665.555" y="289"/>
      <point x="668.555" y="326" type="qcurve"/>
      <point x="668.555" y="327"/>
      <point x="664.555" y="341"/>
      <point x="664.555" y="342" type="qcurve"/>
      <point x="673.555" y="396"/>
      <point x="641.555" y="501"/>
      <point x="601.555" y="541" type="qcurve"/>
      <point x="533.555" y="608"/>
      <point x="342.555" y="605"/>
      <point x="274.555" y="537" type="qcurve"/>
      <point x="205.555" y="468"/>
      <point x="203.555" y="277"/>
      <point x="270.555" y="209" type="qcurve"/>
      <point x="322.555" y="157"/>
      <point x="466.555" y="135"/>
      <point x="530.555" y="166" type="qcurve"/>
      <point x="541.555" y="171"/>
      <point x="597.555" y="115"/>
      <point x="620.555" y="84" type="qcurve"/>
      <point x="643.555" y="54" type="line"/>
      <point x="530.555" y="-22"/>
      <point x="256.555" y="1"/>
      <point x="159.555" y="98" type="qcurve"/>
      <point x="47.5547" y="210"/>
      <point x="52.5547" y="532"/>
      <point x="282.555" y="762"/>
      <point x="603.555" y="767"/>
      <point x="715.555" y="655" type="qcurve"/>
      <point x="799.555" y="571"/>
      <point x="841.555" y="325"/>
      <point x="793.555" y="220" type="qcurve"/>
      <point x="771.555" y="207"/>
      <point x="727.555" y="191"/>
      <point x="678.555" y="188"/>
      <point x="644.555" y="187"/>
      <point x="590.555" y="200"/>
      <point x="565.555" y="206"/>
      <point x="502.555" y="225"/>
    </contour>
    <contour>
      <point x="491.555" y="420" type="line"/>
      <point x="487.555" y="421"/>
      <point x="479.555" y="421" type="qcurve"/>
      <point x="456.555" y="421"/>
      <point x="425.555" y="390"/>
      <point x="425.555" y="346"/>
      <point x="456.555" y="314"/>
      <point x="479.555" y="314" type="qcurve"/>
      <point x="483.555" y="314"/>
      <point x="491.555" y="316" type="qcurve"/>
    </contour>
  </outline>
</glyph>
<glyph name="c" format="2">
  <advance width="384"/>
  <unicode hex="0063"/>
  <outline>
    <contour>
      <point x="334" y="4" type="line"/>
      <point x="321" y="3"/>
      <point x="308" y="3" type="qcurve"/>
      <point x="201" y="3"/>
      <point x="50" y="153"/>
      <point x="50" y="367"/>
      <point x="201" y="518"/>
      <point x="308" y="518" type="qcurve"/>
      <point x="321" y="518"/>
      <point x="334" y="517" type="qcurve"/>
      <point x="334" y="364" type="line"/>
      <point x="321" y="367"/>
      <point x="308" y="367" type="qcurve"/>
      <point x="263" y="367"/>
      <point x="201" y="305"/>
      <point x="201" y="260" type="qcurve"/>
      <point x="201" y="216"/>
      <point x="263" y="154"/>
      <point x="308" y="154" type="qcurve"/>
      <point x="321" y="154"/>
      <point x="334" y="157" type="qcurve"/>
    </contour>
  </outline>
</glyph>
<glyph name="sterling" format="2">
  <advance width="864"/>
  <unicode hex="00A3"/>
  <outline>
    <contour>
      <point x="512" y="752" type="qcurve"/>
      <point x="512" y="584" type="line"/>
      <point x="481" y="610"/>
      <point x="441" y="610" type="qcurve"/>
      <point x="392" y="610"/>
      <point x="360" y="573" type="qcurve"/>
      <point x="360" y="511" type="line"/>
      <point x="457" y="511" type="line"/>
      <point x="457" y="359" type="line"/>
      <point x="360" y="359" type="line"/>
      <point x="360" y="166" type="line"/>
      <point x="626" y="166" type="line"/>
      <point x="664" y="198"/>
      <point x="664" y="248" type="qcurve"/>
      <point x="664" y="288"/>
      <point x="638" y="318" type="qcurve"/>
      <point x="806" y="318" type="line"/>
      <point x="814" y="284"/>
      <point x="814" y="248" type="qcurve"/>
      <point x="814" y="160"/>
      <point x="710" y="26"/>
      <point x="628" y="2" type="qcurve"/>
      <point x="360" y="1" type="line"/>
      <point x="360" y="-3" type="line"/>
      <point x="193" y="-3" type="line"/>
      <point x="193" y="0" type="line"/>
      <point x="50" y="0" type="line"/>
      <point x="50" y="166" type="line"/>
      <point x="194" y="166" type="line"/>
      <point x="195" y="359" type="line"/>
      <point x="98" y="359" type="line"/>
      <point x="98" y="511" type="line"/>
      <point x="196" y="511" type="line"/>
      <point x="196" y="574" type="line"/>
      <point x="220" y="657"/>
      <point x="354" y="761"/>
      <point x="441" y="761" type="qcurve"/>
      <point x="478" y="761"/>
    </contour>
  </outline>
</glyph>
<glyph name="section" format="2">
  <advance width="599"/>
  <unicode hex="00A7"/>
  <outline>
    <contour>
      <point x="50" y="108" type="qcurve"/>
      <point x="125" y="233" type="line"/>
      <point x="137" y="223"/>
      <point x="147" y="218" type="qcurve"/>
      <point x="185" y="196"/>
      <point x="269" y="217"/>
      <point x="292" y="253" type="qcurve"/>
      <point x="314" y="292"/>
      <point x="265" y="359"/>
      <point x="222" y="366" type="qcurve"/>
      <point x="155" y="402"/>
      <point x="74" y="496"/>
      <point x="53" y="621"/>
      <point x="96" y="690" type="qcurve"/>
      <point x="135" y="754"/>
      <point x="205" y="786" type="qcurve"/>
      <point x="172" y="821"/>
      <point x="139" y="897"/>
      <point x="147" y="991"/>
      <point x="176" y="1039" type="qcurve"/>
      <point x="228" y="1126"/>
      <point x="434" y="1177"/>
      <point x="528" y="1127" type="qcurve"/>
      <point x="531" y="1124"/>
      <point x="546" y="1115"/>
      <point x="549" y="1112" type="qcurve"/>
      <point x="474" y="987" type="line"/>
      <point x="462" y="997"/>
      <point x="452" y="1002" type="qcurve"/>
      <point x="414" y="1023"/>
      <point x="329" y="1002"/>
      <point x="307" y="965" type="qcurve"/>
      <point x="282" y="924"/>
      <point x="323" y="826"/>
      <point x="371" y="818" type="qcurve"/>
      <point x="394" y="806"/>
      <point x="413" y="794" type="qcurve"/>
      <point x="431" y="787"/>
      <point x="448" y="778" type="qcurve"/>
      <point x="451" y="775"/>
      <point x="466" y="766"/>
      <point x="469" y="763" type="qcurve"/>
      <point x="465" y="756" type="line"/>
      <point x="580" y="658"/>
      <point x="502" y="530" type="qcurve"/>
      <point x="456" y="452"/>
      <point x="366" y="422" type="qcurve"/>
      <point x="505" y="318"/>
      <point x="422" y="181" type="qcurve"/>
      <point x="370" y="93"/>
      <point x="165" y="42"/>
      <point x="71" y="93" type="qcurve"/>
      <point x="68" y="96"/>
      <point x="53" y="105"/>
    </contour>
    <contour>
      <point x="214" y="575" type="qcurve"/>
      <point x="220" y="570"/>
      <point x="227" y="567" type="qcurve"/>
      <point x="265" y="545"/>
      <point x="349" y="566"/>
      <point x="372" y="602" type="qcurve"/>
      <point x="385" y="625"/>
      <point x="381" y="648" type="qcurve"/>
      <point x="377" y="651"/>
      <point x="372" y="653" type="qcurve"/>
      <point x="334" y="674"/>
      <point x="249" y="653"/>
      <point x="227" y="616" type="qcurve"/>
      <point x="216" y="597"/>
    </contour>
  </outline>
</glyph>
<glyph name="copyright" format="2">
  <advance width="796"/>
  <unicode hex="00A9"/>
  <outline>
    <contour>
      <point x="691" y="378" type="qcurve"/>
      <point x="691" y="502"/>
      <point x="520" y="678"/>
      <point x="276" y="678"/>
      <point x="105" y="502"/>
      <point x="105" y="378" type="qcurve"/>
      <point x="105" y="253"/>
      <point x="276" y="77"/>
      <point x="520" y="77"/>
      <point x="691" y="253"/>
    </contour>
    <contour>
      <point x="746" y="380" type="qcurve"/>
      <point x="746" y="282"/>
      <point x="653" y="117"/>
      <point x="493" y="21"/>
      <point x="303" y="21"/>
      <point x="143" y="117"/>
      <point x="50" y="282"/>
      <point x="50" y="380" type="qcurve"/>
      <point x="50" y="477"/>
      <point x="143" y="642"/>
      <point x="303" y="738"/>
      <point x="493" y="738"/>
      <point x="653" y="642"/>
      <point x="746" y="477"/>
    </contour>
    <contour>
      <point x="459" y="196" type="line"/>
      <point x="451" y="195"/>
      <point x="443" y="195" type="qcurve"/>
      <point x="376" y="195"/>
      <point x="282" y="289"/>
      <point x="282" y="355" type="qcurve"/>
      <point x="282" y="422"/>
      <point x="376" y="517"/>
      <point x="443" y="517" type="qcurve"/>
      <point x="451" y="517"/>
      <point x="459" y="516" type="qcurve"/>
      <point x="459" y="420" type="line"/>
      <point x="451" y="422"/>
      <point x="443" y="422" type="qcurve"/>
      <point x="415" y="422"/>
      <point x="376" y="384"/>
      <point x="376" y="355" type="qcurve"/>
      <point x="376" y="328"/>
      <point x="415" y="289"/>
      <point x="443" y="289" type="qcurve"/>
      <point x="451" y="289"/>
      <point x="459" y="291" type="qcurve"/>
    </contour>
  </outline>
</glyph>
<glyph name="Thorn" format="2">
  <advance width="534"/>
  <unicode hex="00DE"/>
  <outline>
    <contour>
      <point x="202" y="561" type="qcurve"/>
      <point x="202" y="354" type="line"/>
      <point x="214" y="351"/>
      <point x="226" y="351" type="qcurve"/>
      <point x="271" y="351"/>
      <point x="333" y="413"/>
      <point x="333" y="458" type="qcurve"/>
      <point x="333" y="502"/>
      <point x="271" y="564"/>
      <point x="226" y="564" type="qcurve"/>
      <point x="214" y="564"/>
    </contour>
    <contour>
      <point x="202" y="3" type="line"/>
      <point x="50" y="3" type="line"/>
      <point x="50" y="903" type="line"/>
      <point x="197" y="903" type="line"/>
      <point x="202" y="714" type="line"/>
      <point x="210" y="715"/>
      <point x="226" y="715" type="qcurve"/>
      <point x="333" y="715"/>
      <point x="484" y="565"/>
      <point x="484" y="351"/>
      <point x="333" y="200"/>
      <point x="226" y="200" type="qcurve"/>
      <point x="210" y="200"/>
      <point x="202" y="201" type="qcurve"/>
    </contour>
  </outline>
</glyph>
<glyph name="germandbls" format="2">
  <advance width="836"/>
  <unicode hex="00DF"/>
  <outline>
    <contour>
      <point x="283" y="47" type="qcurve"/>
      <point x="350" y="159" type="line"/>
      <point x="357" y="152"/>
      <point x="372" y="147" type="qcurve"/>
      <point x="412" y="130"/>
      <point x="475" y="138"/>
      <point x="495" y="162" type="qcurve"/>
      <point x="518" y="189"/>
      <point x="473" y="201" type="qcurve"/>
      <point x="461" y="204"/>
      <point x="419" y="211" type="qcurve"/>
      <point x="353" y="237"/>
      <point x="273" y="306"/>
      <point x="257" y="390"/>
      <point x="295" y="434" type="qcurve"/>
      <point x="303" y="444"/>
      <point x="337" y="488"/>
      <point x="355" y="509"/>
      <point x="388" y="542"/>
      <point x="416" y="555"/>
      <point x="455" y="566"/>
      <point x="500" y="559"/>
      <point x="526" y="549" type="qcurve"/>
      <point x="527" y="549"/>
      <point x="528" y="549" type="qcurve"/>
      <point x="573" y="549"/>
      <point x="635" y="611"/>
      <point x="635" y="656" type="qcurve"/>
      <point x="635" y="686"/>
      <point x="444" y="718"/>
      <point x="238" y="707"/>
      <point x="217" y="683" type="qcurve"/>
      <point x="217" y="2" type="line"/>
      <point x="50" y="2" type="line"/>
      <point x="53" y="684" type="line"/>
      <point x="77" y="767"/>
      <point x="144" y="819" type="qcurve"/>
      <point x="185" y="851"/>
      <point x="343" y="876"/>
      <point x="519" y="856"/>
      <point x="680" y="807"/>
      <point x="786" y="713"/>
      <point x="786" y="656" type="qcurve"/>
      <point x="786" y="579"/>
      <point x="763" y="485"/>
      <point x="723" y="447"/>
      <point x="673" y="437"/>
      <point x="612" y="444"/>
      <point x="554" y="448"/>
      <point x="492" y="427"/>
      <point x="470" y="400" type="qcurve"/>
      <point x="454" y="382"/>
      <point x="445" y="328"/>
      <point x="471" y="280"/>
      <point x="501" y="275" type="qcurve"/>
      <point x="540" y="258"/>
      <point x="598" y="229"/>
      <point x="651" y="189"/>
      <point x="674" y="150"/>
      <point x="669" y="101"/>
      <point x="647" y="75" type="qcurve"/>
      <point x="600" y="18"/>
      <point x="400" y="-7"/>
      <point x="305" y="34" type="qcurve"/>
      <point x="297" y="36"/>
    </contour>
  </outline>
</glyph>
<glyph name="uni0237" format="2">
  <advance width="419"/>
  <unicode hex="0237"/>
  <outline>
    <contour>
      <point x="50" y="-195" type="qcurve"/>
      <point x="50" y="-27" type="line"/>
      <point x="81" y="-53"/>
      <point x="121" y="-53" type="qcurve"/>
      <point x="170" y="-53"/>
      <point x="202" y="-16" type="qcurve"/>
      <point x="202" y="517" type="line"/>
      <point x="369" y="517" type="line"/>
      <point x="366" y="-17" type="line"/>
      <point x="342" y="-100"/>
      <point x="208" y="-204"/>
      <point x="121" y="-204" type="qcurve"/>
      <point x="84" y="-204"/>
    </contour>
  </outline>
</glyph>
<glyph name="uni0327" format="2">
  <advance width="0"/>
  <unicode hex="0327"/>
  <outline>
    <contour>
      <point x="-121" y="-68" type="line"/>
      <point x="-121" y="9" type="line"/>
      <point x="-113" y="7"/>
      <point x="-108" y="7" type="qcurve"/>
      <point x="-85" y="7"/>
      <point x="-54" y="38"/>
      <point x="-54" y="82"/>
      <point x="-86" y="114"/>
      <point x="-108" y="114" type="qcurve"/>
      <point x="-113" y="114"/>
      <point x="-121" y="112" type="qcurve"/>
      <point x="-121" y="189" type="line"/>
      <point x="-108" y="189" type="line"/>
      <point x="-54" y="189"/>
      <point x="21" y="114"/>
      <point x="21" y="60" type="qcurve"/>
      <point x="21" y="7"/>
      <point x="-54" y="-68"/>
      <point x="-108" y="-68" type="qcurve"/>
    </contour>
  </outline>
</glyph>
<glyph name="u0980" format="2">
  <advance width="534"/>
  <unicode hex="0980"/>
  <outline>
    <contour>
      <point x="210" y="343" type="qcurve"/>
      <point x="210" y="265" type="line"/>
      <point x="107" y="265"/>
      <point x="0" y="410"/>
      <point x="0" y="523" type="qcurve"/>
      <point x="0" y="630"/>
      <point x="151" y="780"/>
      <point x="258" y="780" type="qcurve"/>
      <point x="264" y="780" type="line"/>
      <point x="270" y="780"/>
      <point x="283" y="781"/>
      <point x="304" y="780"/>
      <point x="324" y="778"/>
      <point x="347" y="774"/>
      <point x="367" y="768"/>
      <point x="387" y="758"/>
      <point x="395" y="752" type="qcurve"/>
      <point x="412" y="738"/>
      <point x="431" y="677"/>
      <point x="432" y="654" type="qcurve"/>
      <point x="434" y="631" type="line"/>
      <point x="434" y="3" type="line"/>
      <point x="282" y="3" type="line"/>
      <point x="282" y="266" type="line"/>
      <point x="280" y="266"/>
      <point x="282" y="329"/>
      <point x="286" y="384"/>
      <point x="283" y="388" type="qcurve"/>
      <point x="282" y="419" type="line"/>
      <point x="282" y="626" type="line"/>
      <point x="270" y="629"/>
      <point x="258" y="629" type="qcurve"/>
      <point x="213" y="629"/>
      <point x="151" y="567"/>
      <point x="151" y="523" type="qcurve"/>
      <point x="151" y="498"/>
      <point x="152" y="478"/>
      <point x="157" y="443"/>
      <point x="169" y="428"/>
      <point x="193" y="416"/>
      <point x="210" y="416" type="qcurve"/>
      <point x="210" y="397" type="line"/>
      <point x="210" y="378"/>
      <point x="209" y="346"/>
    </contour>
  </outline>
</glyph>
<glyph name="u0986" format="2">
  <advance width="1261"/>
  <unicode hex="0986"/>
  <outline>
    <contour>
      <point x="1061" y="850" type="line"/>
      <point x="1213" y="850" type="line"/>
      <point x="1213" y="803" type="line"/>
      <point x="1261" y="803" type="line"/>
      <point x="1261" y="671" type="line"/>
      <point x="1213" y="671" type="line"/>
      <point x="1213" y="-2" type="line"/>
      <point x="1061" y="-2" type="line"/>
      <point x="1061" y="489" type="line"/>
      <point x="1059" y="487" type="line"/>
      <point x="925" y="625" type="line"/>
      <point x="925" y="0" type="line"/>
      <point x="773" y="0" type="line"/>
      <point x="771" y="-2" type="line"/>
      <point x="641" y="128" type="line"/>
      <point x="598" y="71"/>
      <point x="471" y="5"/>
      <point x="398" y="5" type="qcurve"/>
      <point x="271" y="5"/>
      <point x="92" y="189"/>
      <point x="92" y="320" type="qcurve"/>
      <point x="153.5" y="321.5" type="line" smooth="yes"/>
      <point x="215" y="323"/>
      <point x="215" y="324" type="qcurve"/>
      <point x="215" y="321"/>
      <point x="215" y="318" type="qcurve"/>
      <point x="215" y="240"/>
      <point x="322" y="130"/>
      <point x="474" y="130"/>
      <point x="581" y="240"/>
      <point x="581" y="318" type="qcurve"/>
      <point x="581" y="395"/>
      <point x="476" y="504"/>
      <point x="401" y="505" type="qcurve"/>
      <point x="396" y="634" type="line"/>
      <point x="397" y="634"/>
      <point x="398" y="634" type="qcurve"/>
      <point x="525" y="634"/>
      <point x="704" y="450"/>
      <point x="704" y="320" type="qcurve"/>
      <point x="704" y="301"/>
      <point x="701" y="283" type="qcurve"/>
      <point x="773" y="211" type="line"/>
      <point x="773" y="671" type="line"/>
      <point x="0" y="671" type="line"/>
      <point x="0" y="800" type="line"/>
      <point x="754" y="800" type="line"/>
      <point x="946" y="800" type="line"/>
      <point x="955" y="800" type="line"/>
      <point x="1061" y="697" type="line"/>
    </contour>
  </outline>
</glyph>
<glyph name="u098F" format="2">
  <advance width="697"/>
  <unicode hex="098F"/>
  <outline>
    <contour>
      <point x="47.5" y="318" type="qcurve"/>
      <point x="215.5" y="318" type="line"/>
      <point x="189.5" y="287"/>
      <point x="189.5" y="248" type="qcurve"/>
      <point x="189.5" y="198"/>
      <point x="225.5" y="166" type="qcurve"/>
      <point x="492.5" y="166" type="line"/>
      <point x="492.5" y="573" type="line"/>
      <point x="460.5" y="610"/>
      <point x="411.5" y="610" type="qcurve"/>
      <point x="371.5" y="610"/>
      <point x="340.5" y="584" type="qcurve"/>
      <point x="340.5" y="752" type="line"/>
      <point x="374.5" y="761"/>
      <point x="411.5" y="761" type="qcurve"/>
      <point x="498.5" y="761"/>
      <point x="632.5" y="657"/>
      <point x="656.5" y="574" type="qcurve"/>
      <point x="659.5" y="-3" type="line"/>
      <point x="586.5" y="-4"/>
      <point x="299.5" y="3"/>
      <point x="225.5" y="2" type="qcurve"/>
      <point x="142.5" y="26"/>
      <point x="37.5" y="161"/>
      <point x="37.5" y="248" type="qcurve"/>
      <point x="37.5" y="285"/>
    </contour>
  </outline>
</glyph>
<glyph name="u0993" format="2">
  <advance width="616"/>
  <unicode hex="0993"/>
  <outline>
    <contour>
      <point x="285" y="682" type="qcurve"/>
      <point x="237" y="679"/>
      <point x="223" y="676" type="qcurve"/>
      <point x="224" y="676"/>
      <point x="214" y="718"/>
      <point x="204" y="760"/>
      <point x="205" y="760" type="qcurve"/>
      <point x="209" y="760"/>
      <point x="249" y="780"/>
      <point x="306" y="805"/>
      <point x="329" y="808" type="qcurve"/>
      <point x="435" y="823"/>
      <point x="570" y="681"/>
      <point x="568" y="565" type="qcurve"/>
      <point x="566" y="478"/>
      <point x="518" y="413" type="qcurve"/>
      <point x="568" y="345"/>
      <point x="568" y="260" type="qcurve"/>
      <point x="568" y="153"/>
      <point x="417" y="3"/>
      <point x="310" y="3" type="qcurve"/>
      <point x="309" y="3"/>
      <point x="308" y="3" type="qcurve" smooth="yes"/>
      <point x="307" y="3" type="line"/>
      <point x="306" y="3" type="line"/>
      <point x="304" y="3"/>
      <point x="302" y="3" type="qcurve"/>
      <point x="294" y="3"/>
      <point x="288" y="4" type="qcurve"/>
      <point x="187" y="10"/>
      <point x="48" y="158"/>
      <point x="48" y="260" type="qcurve"/>
      <point x="48" y="342"/>
      <point x="94" y="408" type="qcurve"/>
      <point x="106" y="412" type="line"/>
      <point x="207" y="384"/>
      <point x="210" y="383" type="qcurve"/>
      <point x="223" y="377"/>
      <point x="218" y="361" type="qcurve"/>
      <point x="202" y="313"/>
      <point x="200" y="285" type="qcurve"/>
      <point x="199" y="273"/>
      <point x="199" y="260" type="qcurve"/>
      <point x="199" y="215"/>
      <point x="261" y="155"/>
      <point x="308" y="154" type="qcurve"/>
      <point x="355" y="155"/>
      <point x="417" y="215"/>
      <point x="417" y="260" type="qcurve"/>
      <point x="417" y="299"/>
      <point x="369" y="357"/>
      <point x="332" y="365" type="qcurve"/>
      <point x="332" y="364" type="line"/>
      <point x="308" y="459" type="line"/>
      <point x="320" y="459"/>
      <point x="332" y="462" type="qcurve"/>
      <point x="332" y="461" type="line"/>
      <point x="369" y="469"/>
      <point x="417" y="527"/>
      <point x="417" y="565" type="qcurve"/>
      <point x="417" y="623"/>
      <point x="345" y="685"/>
    </contour>
  </outline>
</glyph>
<glyph name="u0994" format="2">
  <advance width="884"/>
  <unicode hex="0994"/>
  <outline>
    <contour>
      <point x="285" y="682" type="qcurve"/>
      <point x="237" y="679"/>
      <point x="223" y="676" type="qcurve"/>
      <point x="224" y="676"/>
      <point x="214" y="718"/>
      <point x="204" y="760"/>
      <point x="205" y="760" type="qcurve"/>
      <point x="209" y="760"/>
      <point x="249" y="780"/>
      <point x="306" y="805"/>
      <point x="329" y="808" type="qcurve"/>
      <point x="435" y="823"/>
      <point x="570" y="681"/>
      <point x="568" y="565" type="qcurve"/>
      <point x="567" y="498"/>
      <point x="537" y="442" type="qcurve"/>
      <point x="613" y="413"/>
      <point x="660" y="414" type="qcurve"/>
      <point x="690" y="414"/>
      <point x="699" y="453" type="qcurve"/>
      <point x="717" y="530"/>
      <point x="649" y="697"/>
      <point x="587" y="759" type="qcurve"/>
      <point x="563" y="783"/>
      <point x="458" y="810"/>
      <point x="435" y="834" type="qcurve"/>
      <point x="419" y="849"/>
      <point x="398" y="909"/>
      <point x="396" y="932" type="qcurve"/>
      <point x="394" y="954" type="line"/>
      <point x="482" y="1042" type="line"/>
      <point x="483" y="1033"/>
      <point x="487" y="1002"/>
      <point x="510" y="935"/>
      <point x="526" y="919" type="qcurve"/>
      <point x="548" y="897"/>
      <point x="651" y="873"/>
      <point x="674" y="851" type="qcurve"/>
      <point x="744" y="780" type="line"/>
      <point x="760" y="764"/>
      <point x="799" y="679"/>
      <point x="829" y="566"/>
      <point x="841" y="455"/>
      <point x="810" y="361"/>
      <point x="771" y="342" type="qcurve"/>
      <point x="707" y="312"/>
      <point x="648" y="312" type="qcurve"/>
      <point x="614" y="312"/>
      <point x="559" y="327" type="qcurve"/>
      <point x="568" y="294"/>
      <point x="568" y="260" type="qcurve"/>
      <point x="568" y="153"/>
      <point x="417" y="3"/>
      <point x="310" y="3" type="qcurve"/>
      <point x="309" y="3"/>
      <point x="308" y="3" type="qcurve" smooth="yes"/>
      <point x="307" y="3" type="line"/>
      <point x="306" y="3" type="line"/>
      <point x="304" y="3"/>
      <point x="302" y="3" type="qcurve"/>
      <point x="294" y="3"/>
      <point x="288" y="4" type="qcurve"/>
      <point x="187" y="10"/>
      <point x="48" y="158"/>
      <point x="48" y="260" type="qcurve"/>
      <point x="48" y="342"/>
      <point x="94" y="408" type="qcurve"/>
      <point x="106" y="412" type="line"/>
      <point x="207" y="384"/>
      <point x="210" y="383" type="qcurve"/>
      <point x="223" y="377"/>
      <point x="218" y="361" type="qcurve"/>
      <point x="202" y="313"/>
      <point x="200" y="285" type="qcurve"/>
      <point x="199" y="273"/>
      <point x="199" y="260" type="qcurve"/>
      <point x="199" y="215"/>
      <point x="261" y="155"/>
      <point x="308" y="154" type="qcurve"/>
      <point x="355" y="155"/>
      <point x="417" y="215"/>
      <point x="417" y="260" type="qcurve"/>
      <point x="417" y="299"/>
      <point x="369" y="357"/>
      <point x="332" y="365" type="qcurve"/>
      <point x="332" y="364" type="line"/>
      <point x="308" y="459" type="line"/>
      <point x="320" y="459"/>
      <point x="332" y="462" type="qcurve"/>
      <point x="332" y="461" type="line"/>
      <point x="369" y="469"/>
      <point x="417" y="527"/>
      <point x="417" y="565" type="qcurve"/>
      <point x="417" y="623"/>
      <point x="345" y="685"/>
    </contour>
  </outline>
</glyph>
<glyph name="u0995" format="2">
  <advance width="1098"/>
  <unicode hex="0995"/>
  <outline>
    <contour>
      <point x="1098" y="803" type="line"/>
      <point x="1098" y="671" type="line"/>
      <point x="670" y="671" type="line"/>
      <point x="670" y="478" type="line"/>
      <point x="722" y="502"/>
      <point x="780" y="502" type="qcurve"/>
      <point x="888" y="502"/>
      <point x="1038" y="352"/>
      <point x="1038" y="244" type="qcurve"/>
      <point x="1038" y="231"/>
      <point x="1037" y="218" type="qcurve"/>
      <point x="884" y="218" type="line"/>
      <point x="888" y="231"/>
      <point x="888" y="244" type="qcurve"/>
      <point x="888" y="290"/>
      <point x="826" y="352"/>
      <point x="780" y="352" type="qcurve"/>
      <point x="736" y="352"/>
      <point x="674" y="289"/>
      <point x="674" y="244" type="qcurve"/>
      <point x="674" y="231"/>
      <point x="678" y="218" type="qcurve"/>
      <point x="670" y="218" type="line"/>
      <point x="670" y="1" type="line"/>
      <point x="527" y="1" type="line"/>
      <point x="70" y="274" type="line"/>
      <point x="70" y="426" type="line"/>
      <point x="524" y="603" type="line"/>
      <point x="524" y="671" type="line"/>
      <point x="0" y="671" type="line"/>
      <point x="0" y="803" type="line"/>
    </contour>
    <contour>
      <point x="525" y="155" type="line"/>
      <point x="524" y="452"/>
      <point x="524" y="454" type="qcurve"/>
      <point x="214" y="350" type="line"/>
    </contour>
  </outline>
</glyph>
<glyph name="u0996" format="2">
  <advance width="674"/>
  <unicode hex="0996"/>
  <outline>
    <contour>
      <point x="674" y="803" type="line"/>
      <point x="674" y="671" type="line"/>
      <point x="600" y="671" type="line"/>
      <point x="600" y="1" type="line"/>
      <point x="454" y="1" type="line"/>
      <point x="454" y="777" type="line"/>
      <point x="476" y="777" type="line"/>
      <point x="476" y="803" type="line"/>
    </contour>
    <contour>
      <point x="270" y="714" type="line"/>
      <point x="402" y="714" type="line"/>
      <point x="286" y="444" type="line"/>
      <point x="285" y="445" type="line"/>
      <point x="144" y="274" type="line"/>
      <point x="453" y="160" type="line"/>
      <point x="453" y="2" type="line"/>
      <point x="0" y="180" type="line"/>
      <point x="0" y="332" type="line"/>
      <point x="246" y="562" type="line"/>
      <point x="257" y="629" type="line"/>
      <point x="237" y="572"/>
      <point x="138" y="500"/>
      <point x="76" y="500" type="qcurve"/>
      <point x="-6" y="500"/>
      <point x="-118" y="613"/>
      <point x="-118" y="694" type="qcurve"/>
      <point x="-118" y="713" type="line"/>
      <point x="-2" y="713" type="line"/>
      <point x="-6" y="704"/>
      <point x="-6" y="694" type="qcurve"/>
      <point x="-6" y="660"/>
      <point x="42" y="613"/>
      <point x="109" y="613"/>
      <point x="154" y="660"/>
      <point x="154" y="694" type="qcurve"/>
      <point x="154" y="704"/>
      <point x="152" y="713" type="qcurve"/>
      <point x="268" y="713" type="line"/>
      <point x="268" y="701" type="line"/>
    </contour>
  </outline>
</glyph>
<glyph name="u0998" format="2">
  <advance width="776"/>
  <unicode hex="0998"/>
  <outline>
    <contour>
      <point x="86" y="672" type="qcurve"/>
      <point x="0" y="671" type="line"/>
      <point x="0" y="803" type="line"/>
      <point x="776" y="803" type="line"/>
      <point x="776" y="671" type="line"/>
      <point x="755" y="671" type="line"/>
      <point x="755" y="0" type="line"/>
      <point x="365" y="19" type="line"/>
      <point x="237" y="19"/>
      <point x="56" y="153"/>
      <point x="56" y="343"/>
      <point x="131" y="410" type="qcurve"/>
      <point x="56" y="477"/>
      <point x="56" y="572" type="qcurve"/>
      <point x="56" y="625"/>
    </contour>
    <contour>
      <point x="603" y="671" type="line"/>
      <point x="359" y="667" type="line"/>
      <point x="295" y="667"/>
      <point x="207" y="612"/>
      <point x="207" y="572" type="qcurve"/>
      <point x="207" y="535"/>
      <point x="261" y="482"/>
      <point x="301" y="478" type="qcurve"/>
      <point x="308" y="478"/>
      <point x="320" y="478"/>
      <point x="326" y="478" type="qcurve"/>
      <point x="333" y="479"/>
      <point x="340" y="480" type="qcurve"/>
      <point x="340" y="477" type="line"/>
      <point x="340" y="344" type="line"/>
      <point x="340" y="341" type="line"/>
      <point x="333" y="342"/>
      <point x="326" y="343" type="qcurve"/>
      <point x="320" y="343"/>
      <point x="308" y="343"/>
      <point x="301" y="343" type="qcurve"/>
      <point x="261" y="339"/>
      <point x="207" y="285"/>
      <point x="207" y="248" type="qcurve"/>
      <point x="207" y="209"/>
      <point x="299" y="154"/>
      <point x="365" y="154" type="qcurve"/>
      <point x="606" y="160" type="line"/>
    </contour>
  </outline>
</glyph>
<glyph name="u099C" format="2">
  <advance width="996"/>
  <unicode hex="099C"/>
  <outline>
    <contour>
      <point x="996" y="803" type="line"/>
      <point x="996" y="671" type="line"/>
      <point x="441" y="671" type="line"/>
      <point x="441" y="624.611" type="line"/>
      <point x="990.7" y="628.5" type="line"/>
      <point x="988.3" y="408.7" type="line"/>
      <point x="960" y="417"/>
      <point x="929.9" y="416.7" type="qcurve" smooth="yes"/>
      <point x="852" y="417"/>
      <point x="799.5" y="378.3" type="qcurve" smooth="yes"/>
      <point x="747" y="340"/>
      <point x="746.7" y="278.3" type="qcurve" smooth="yes"/>
      <point x="747" y="217"/>
      <point x="800.3" y="172.7" type="qcurve" smooth="yes"/>
      <point x="854" y="129"/>
      <point x="929.9" y="128.7" type="qcurve" smooth="yes"/>
      <point x="960" y="129"/>
      <point x="988.3" y="136.7" type="qcurve"/>
      <point x="988.3" y="30.2998" type="line"/>
      <point x="960" y="26"/>
      <point x="929.9" y="25.5" type="qcurve" smooth="yes"/>
      <point x="847" y="26"/>
      <point x="776.3" y="59.0996" type="qcurve" smooth="yes"/>
      <point x="706" y="93"/>
      <point x="665.1" y="150.7" type="qcurve" smooth="yes"/>
      <point x="624" y="209"/>
      <point x="624.3" y="277.5" type="qcurve" smooth="yes"/>
      <point x="624" y="354"/>
      <point x="674.7" y="412.3" type="qcurve" smooth="yes"/>
      <point x="725" y="471"/>
      <point x="808.3" y="498.3" type="qcurve"/>
      <point x="441" y="496.766" type="line"/>
      <point x="441" y="484" type="line"/>
      <point x="501" y="450"/>
      <point x="572" y="331"/>
      <point x="570" y="260" type="qcurve" smooth="yes"/>
      <point x="567" y="151"/>
      <point x="417" y="3"/>
      <point x="309" y="3" type="qcurve" smooth="yes"/>
      <point x="247" y="3"/>
      <point x="149" y="47"/>
      <point x="88" y="121"/>
      <point x="56" y="212"/>
      <point x="56" y="261" type="qcurve"/>
      <point x="201" y="261" type="line"/>
      <point x="201" y="260" type="line" smooth="yes"/>
      <point x="201" y="215"/>
      <point x="263" y="155"/>
      <point x="310" y="154" type="qcurve" smooth="yes"/>
      <point x="357" y="155"/>
      <point x="419" y="215"/>
      <point x="419" y="260" type="qcurve" smooth="yes"/>
      <point x="419" y="302"/>
      <point x="366" y="361"/>
      <point x="324" y="366" type="qcurve"/>
      <point x="309" y="366" type="line"/>
      <point x="309" y="518" type="line"/>
      <point x="309" y="671" type="line"/>
      <point x="0" y="671" type="line"/>
      <point x="0" y="803" type="line"/>
    </contour>
  </outline>
</glyph>
<glyph name="u099E" format="2">
  <advance width="730"/>
  <unicode hex="099E"/>
  <outline>
    <contour>
      <point x="-37" y="318" type="qcurve"/>
      <point x="131" y="318" type="line"/>
      <point x="105" y="287"/>
      <point x="105" y="248" type="qcurve"/>
      <point x="105" y="198"/>
      <point x="141" y="166" type="qcurve"/>
      <point x="408" y="166" type="line"/>
      <point x="408" y="573" type="line"/>
      <point x="376" y="610"/>
      <point x="327" y="610" type="qcurve"/>
      <point x="287" y="610"/>
      <point x="256" y="584" type="qcurve"/>
      <point x="256" y="752" type="line"/>
      <point x="290" y="761"/>
      <point x="327" y="761" type="qcurve"/>
      <point x="410" y="761"/>
      <point x="539" y="667"/>
      <point x="567" y="591" type="qcurve"/>
      <point x="594" y="605"/>
      <point x="611" y="607" type="qcurve"/>
      <point x="664" y="614"/>
      <point x="731" y="543"/>
      <point x="730" y="485" type="qcurve"/>
      <point x="729" y="442"/>
      <point x="705" y="409" type="qcurve"/>
      <point x="730" y="375"/>
      <point x="730" y="333" type="qcurve"/>
      <point x="730" y="279"/>
      <point x="655" y="204"/>
      <point x="601" y="204" type="qcurve"/>
      <point x="600.5" y="204" type="line" smooth="yes"/>
      <point x="600" y="204"/>
      <point x="599" y="204" type="qcurve"/>
      <point x="598" y="204"/>
      <point x="597" y="204" type="qcurve"/>
      <point x="593" y="204"/>
      <point x="590" y="205" type="qcurve"/>
      <point x="582" y="205"/>
      <point x="574" y="207" type="qcurve"/>
      <point x="575" y="-3" type="line"/>
      <point x="408" y="-3" type="line"/>
      <point x="408" y="0" type="line"/>
      <point x="141" y="2" type="line"/>
      <point x="58" y="26"/>
      <point x="-47" y="161"/>
      <point x="-47" y="248" type="qcurve"/>
      <point x="-47" y="285"/>
    </contour>
    <contour>
      <point x="573" y="286" type="line"/>
      <point x="585" y="280"/>
      <point x="600" y="280" type="qcurve"/>
      <point x="624" y="280"/>
      <point x="655" y="310"/>
      <point x="655" y="333" type="qcurve"/>
      <point x="655" y="352"/>
      <point x="631" y="381"/>
      <point x="612" y="385" type="qcurve"/>
      <point x="600" y="432" type="line"/>
      <point x="606" y="432"/>
      <point x="612" y="434" type="qcurve"/>
      <point x="612" y="433" type="line"/>
      <point x="631" y="437"/>
      <point x="655" y="466"/>
      <point x="655" y="485" type="qcurve"/>
      <point x="655" y="514"/>
      <point x="618" y="545"/>
      <point x="589" y="544" type="qcurve"/>
      <point x="584" y="544"/>
      <point x="572" y="542" type="qcurve"/>
    </contour>
  </outline>
</glyph>
<glyph name="u099F" format="2">
  <advance width="639"/>
  <unicode hex="099F"/>
  <outline>
    <contour>
      <point x="616" y="184" type="line"/>
      <point x="600" y="126"/>
      <point x="511" y="43"/>
      <point x="399" y="4"/>
      <point x="271" y="3"/>
      <point x="158" y="41"/>
      <point x="70" y="125"/>
      <point x="53" y="184" type="qcurve"/>
      <point x="50" y="671" type="line"/>
      <point x="0" y="671" type="line"/>
      <point x="0" y="803" type="line"/>
      <point x="252" y="803" type="line"/>
      <point x="237" y="818" type="line"/>
      <point x="214" y="841"/>
      <point x="191" y="943"/>
      <point x="168" y="966" type="qcurve"/>
      <point x="152" y="982"/>
      <point x="91" y="1004"/>
      <point x="68" y="1007" type="qcurve"/>
      <point x="45" y="1010" type="line"/>
      <point x="134" y="1098" type="line"/>
      <point x="143" y="1097"/>
      <point x="173" y="1094"/>
      <point x="238" y="1073"/>
      <point x="254" y="1057" type="qcurve"/>
      <point x="277" y="1034"/>
      <point x="305" y="928"/>
      <point x="328" y="905" type="qcurve"/>
      <point x="360" y="873"/>
      <point x="391" y="842" type="qcurve"/>
      <point x="424" y="809"/>
      <point x="494" y="803" type="qcurve"/>
      <point x="639" y="803" type="line"/>
      <point x="639" y="671" type="line"/>
      <point x="217" y="671" type="line"/>
      <point x="217" y="185" type="line"/>
      <point x="246" y="152"/>
      <point x="424" y="151"/>
      <point x="452" y="185" type="qcurve"/>
      <point x="452" y="373" type="line"/>
      <point x="619" y="373" type="line"/>
    </contour>
  </outline>
</glyph>
<glyph name="u09A0" format="2">
  <advance width="751"/>
  <unicode hex="09A0"/>
  <outline>
    <contour>
      <point x="374" y="536" type="line"/>
    </contour>
    <contour>
      <point x="726" y="803" type="line"/>
      <point x="726" y="671" type="line"/>
      <point x="615" y="671" type="line"/>
      <point x="699" y="599"/>
      <point x="767" y="381"/>
      <point x="737" y="268" type="qcurve"/>
      <point x="709" y="165"/>
      <point x="563" y="16"/>
      <point x="366" y="-40"/>
      <point x="266" y="-13" type="qcurve"/>
      <point x="230" y="-3"/>
      <point x="197" y="13" type="qcurve"/>
      <point x="237" y="161" type="line"/>
      <point x="233" y="168" type="line"/>
      <point x="236" y="169"/>
      <point x="239" y="170" type="qcurve"/>
      <point x="240" y="173" type="line"/>
      <point x="242" y="172"/>
      <point x="243" y="171" type="qcurve"/>
      <point x="250" y="174"/>
      <point x="257" y="178" type="qcurve"/>
      <point x="281" y="192"/>
      <point x="288" y="408"/>
      <point x="264" y="629"/>
      <point x="249" y="655" type="qcurve"/>
      <point x="244" y="664"/>
      <point x="238" y="671" type="qcurve"/>
      <point x="0" y="671" type="line"/>
      <point x="0" y="803" type="line"/>
      <point x="252" y="803" type="line"/>
      <point x="237" y="818" type="line"/>
      <point x="214" y="841"/>
      <point x="191" y="943"/>
      <point x="168" y="966" type="qcurve"/>
      <point x="152" y="982"/>
      <point x="91" y="1004"/>
      <point x="68" y="1007" type="qcurve"/>
      <point x="45" y="1010" type="line"/>
      <point x="134" y="1098" type="line"/>
      <point x="143" y="1097"/>
      <point x="173" y="1094"/>
      <point x="238" y="1073"/>
      <point x="254" y="1057" type="qcurve"/>
      <point x="277" y="1034"/>
      <point x="305" y="928"/>
      <point x="328" y="905" type="qcurve"/>
      <point x="360" y="873"/>
      <point x="391" y="842" type="qcurve"/>
      <point x="424" y="809"/>
      <point x="494" y="803" type="qcurve"/>
    </contour>
    <contour>
      <point x="386" y="616" type="line"/>
      <point x="401" y="587"/>
      <point x="429" y="451"/>
      <point x="446" y="304"/>
      <point x="443" y="170"/>
      <point x="429" y="144" type="qcurve"/>
      <point x="486" y="161"/>
      <point x="573" y="248"/>
      <point x="589" y="309" type="qcurve"/>
      <point x="602" y="358"/>
      <point x="495" y="595"/>
      <point x="452" y="652" type="qcurve"/>
    </contour>
  </outline>
</glyph>
<glyph name="u09A1" format="2">
  <advance width="616"/>
  <unicode hex="09A1"/>
  <outline>
    <contour>
      <point x="616" y="803" type="line"/>
      <point x="616" y="671" type="line"/>
      <point x="441" y="671" type="line"/>
      <point x="441" y="484" type="line"/>
      <point x="501" y="450"/>
      <point x="572" y="331"/>
      <point x="570" y="260" type="qcurve"/>
      <point x="567" y="151"/>
      <point x="417" y="3"/>
      <point x="309" y="3" type="qcurve"/>
      <point x="247" y="3"/>
      <point x="149" y="47"/>
      <point x="88" y="121"/>
      <point x="56" y="212"/>
      <point x="56" y="261" type="qcurve"/>
      <point x="201" y="261" type="line"/>
      <point x="201" y="260" type="line"/>
      <point x="201" y="215"/>
      <point x="263" y="155"/>
      <point x="310" y="154" type="qcurve"/>
      <point x="357" y="155"/>
      <point x="419" y="215"/>
      <point x="419" y="260" type="qcurve"/>
      <point x="419" y="302"/>
      <point x="366" y="361"/>
      <point x="324" y="366" type="qcurve"/>
      <point x="309" y="366" type="line"/>
      <point x="309" y="518" type="line"/>
      <point x="309" y="518" type="line"/>
      <point x="309" y="671" type="line"/>
      <point x="0" y="671" type="line"/>
      <point x="0" y="803" type="line"/>
    </contour>
  </outline>
</glyph>
<glyph name="u09A7" format="2">
  <advance width="652"/>
  <unicode hex="09A7"/>
  <outline>
    <contour>
      <point x="652" y="803" type="line"/>
      <point x="652" y="671" type="line"/>
      <point x="600" y="671" type="line"/>
      <point x="600" y="1" type="line"/>
      <point x="454" y="1" type="line"/>
      <point x="454" y="3" type="line"/>
      <point x="0" y="274" type="line"/>
      <point x="0" y="426" type="line"/>
      <point x="139" y="480" type="line"/>
      <point x="92" y="534"/>
      <point x="92" y="606" type="qcurve"/>
      <point x="92" y="686"/>
      <point x="205" y="800"/>
      <point x="286" y="800" type="qcurve"/>
      <point x="305" y="800" type="line"/>
      <point x="305" y="684" type="line"/>
      <point x="296" y="686"/>
      <point x="286" y="686" type="qcurve"/>
      <point x="252" y="686"/>
      <point x="205" y="639"/>
      <point x="205" y="606" type="qcurve"/>
      <point x="205" y="578"/>
      <point x="238" y="536"/>
      <point x="265" y="529" type="qcurve"/>
      <point x="454" y="603" type="line"/>
      <point x="454" y="777" type="line"/>
      <point x="454" y="803" type="line"/>
    </contour>
    <contour>
      <point x="454" y="155" type="line"/>
      <point x="454" y="454" type="line"/>
      <point x="144" y="350" type="line"/>
    </contour>
  </outline>
</glyph>
<glyph name="u09A8" format="2">
  <advance width="661"/>
  <unicode hex="09A8"/>
  <outline>
    <contour>
      <point x="661" y="803" type="line"/>
      <point x="661" y="671" type="line"/>
      <point x="616" y="671" type="line"/>
      <point x="616" y="123" type="line"/>
      <point x="622" y="97"/>
      <point x="622" y="70" type="qcurve"/>
      <point x="622" y="56"/>
      <point x="620" y="44" type="qcurve"/>
      <point x="616" y="44" type="line"/>
      <point x="616" y="-2" type="line"/>
      <point x="464" y="-2" type="line"/>
      <point x="464" y="107" type="line"/>
      <point x="453" y="138"/>
      <point x="398" y="176"/>
      <point x="364" y="176" type="qcurve"/>
      <point x="319" y="176"/>
      <point x="258" y="114"/>
      <point x="258" y="70" type="qcurve"/>
      <point x="258" y="56"/>
      <point x="261" y="44" type="qcurve"/>
      <point x="108" y="44" type="line"/>
      <point x="106" y="56"/>
      <point x="106" y="70" type="qcurve"/>
      <point x="106" y="177"/>
      <point x="257" y="328"/>
      <point x="364" y="328" type="qcurve"/>
      <point x="416" y="328"/>
      <point x="464" y="307" type="qcurve"/>
      <point x="464" y="671" type="line"/>
      <point x="0" y="671" type="line"/>
      <point x="0" y="803" type="line"/>
      <point x="464" y="803" type="line"/>
      <point x="616" y="803" type="line"/>
    </contour>
  </outline>
</glyph>
<glyph name="u09AA" format="2">
  <advance width="569"/>
  <unicode hex="09AA"/>
  <outline>
    <contour>
      <point x="175" y="576" type="line"/>
      <point x="188" y="614"/>
      <point x="246" y="669"/>
      <point x="284" y="680" type="qcurve"/>
      <point x="252" y="698"/>
      <point x="174" y="697"/>
      <point x="140" y="677" type="qcurve"/>
      <point x="77" y="641"/>
      <point x="67" y="570" type="qcurve"/>
    </contour>
    <contour>
      <point x="302" y="365" type="line"/>
      <point x="294" y="367"/>
      <point x="286" y="369" type="qcurve"/>
      <point x="279" y="371"/>
      <point x="265" y="378"/>
      <point x="252" y="389"/>
      <point x="242" y="398"/>
      <point x="230" y="414"/>
      <point x="223" y="423"/>
      <point x="211" y="444"/>
      <point x="206" y="451"/>
      <point x="195" y="472"/>
      <point x="194" y="474" type="qcurve"/>
      <point x="93" y="467" type="line"/>
      <point x="102" y="455"/>
      <point x="114" y="444" type="qcurve"/>
      <point x="26" y="394" type="line"/>
      <point x="11" y="411"/>
      <point x="-1" y="431" type="qcurve"/>
      <point x="-50" y="517"/>
      <point x="5" y="710"/>
      <point x="93" y="761" type="qcurve"/>
      <point x="162" y="799"/>
      <point x="312" y="788"/>
      <point x="369" y="742" type="qcurve"/>
      <point x="369" y="845" type="line"/>
      <point x="521" y="845" type="line"/>
      <point x="521" y="801" type="line"/>
      <point x="569" y="801" type="line"/>
      <point x="569" y="669" type="line"/>
      <point x="521" y="669" type="line"/>
      <point x="521" y="-4" type="line"/>
      <point x="369" y="-4" type="line"/>
      <point x="369" y="487" type="line"/>
      <point x="367" y="485" type="line"/>
      <point x="368" y="591" type="line"/>
      <point x="361" y="587" type="line"/>
      <point x="360" y="583" type="line"/>
      <point x="358" y="583"/>
      <point x="356" y="584" type="qcurve"/>
      <point x="354" y="583" type="line"/>
      <point x="354" y="584"/>
      <point x="354" y="585" type="qcurve"/>
      <point x="349" y="587"/>
      <point x="345" y="589" type="qcurve"/>
      <point x="318" y="596"/>
      <point x="270" y="569"/>
      <point x="263" y="541" type="qcurve"/>
      <point x="256" y="515"/>
      <point x="283" y="467"/>
      <point x="310" y="460" type="qcurve"/>
      <point x="318" y="458"/>
      <point x="326" y="458" type="qcurve"/>
    </contour>
    <contour>
      <point x="175" y="576" type="line"/>
    </contour>
  </outline>
</glyph>
<glyph name="u09AD" format="2">
  <advance width="726"/>
  <unicode hex="09AD"/>
  <outline>
    <contour>
      <point x="726" y="803" type="line"/>
      <point x="726" y="671" type="line"/>
      <point x="0" y="671" type="line"/>
      <point x="0" y="803" type="line"/>
    </contour>
    <contour>
      <point x="395" y="617" type="line"/>
      <point x="396" y="634" type="line"/>
      <point x="397" y="634"/>
      <point x="398" y="634" type="qcurve"/>
      <point x="450" y="634"/>
      <point x="498" y="617" type="qcurve"/>
      <point x="509" y="617" type="line"/>
      <point x="509" y="613" type="line"/>
      <point x="596" y="578"/>
      <point x="704" y="419"/>
      <point x="704" y="320" type="qcurve"/>
      <point x="704" y="189"/>
      <point x="525" y="5"/>
      <point x="271" y="5"/>
      <point x="92" y="189"/>
      <point x="92" y="320" type="qcurve"/>
      <point x="148" y="325.5" type="line" smooth="yes"/>
      <point x="204" y="331"/>
      <point x="204" y="332" type="qcurve"/>
      <point x="204" y="329"/>
      <point x="204" y="326" type="qcurve"/>
      <point x="204" y="248"/>
      <point x="311" y="138"/>
      <point x="463" y="138"/>
      <point x="570" y="248"/>
      <point x="570" y="326" type="qcurve"/>
      <point x="570" y="378"/>
      <point x="519" y="465"/>
      <point x="477" y="490" type="qcurve"/>
      <point x="450" y="450"/>
      <point x="366" y="404"/>
      <point x="317" y="404" type="qcurve"/>
      <point x="236" y="404"/>
      <point x="123" y="517"/>
      <point x="123" y="598" type="qcurve"/>
      <point x="123" y="617" type="line"/>
      <point x="239" y="617" type="line"/>
      <point x="236" y="608"/>
      <point x="236" y="598" type="qcurve"/>
      <point x="236" y="564"/>
      <point x="283" y="517"/>
      <point x="317" y="517" type="qcurve"/>
      <point x="344" y="517"/>
      <point x="386" y="549"/>
      <point x="393" y="575" type="qcurve"/>
      <point x="395" y="610" type="line"/>
      <point x="394" y="614"/>
      <point x="393" y="617" type="qcurve"/>
    </contour>
  </outline>
</glyph>
<glyph name="u09B6" format="2">
  <advance width="592"/>
  <unicode hex="09B6"/>
  <outline>
    <contour>
      <point x="-50" y="706" type="line"/>
      <point x="-31" y="706" type="line"/>
      <point x="43" y="706"/>
      <point x="153" y="609"/>
      <point x="162" y="538" type="qcurve"/>
      <point x="170" y="609"/>
      <point x="280" y="706"/>
      <point x="354" y="706" type="qcurve"/>
      <point x="373" y="706" type="line"/>
      <point x="373" y="701" type="line"/>
      <point x="392" y="684" type="line"/>
      <point x="392" y="847" type="line"/>
      <point x="544" y="847" type="line"/>
      <point x="544" y="803" type="line"/>
      <point x="592" y="803" type="line"/>
      <point x="592" y="671" type="line"/>
      <point x="544" y="671" type="line"/>
      <point x="544" y="-2" type="line"/>
      <point x="392" y="-2" type="line"/>
      <point x="392" y="575" type="line"/>
      <point x="373" y="594" type="line"/>
      <point x="373" y="590" type="line"/>
      <point x="364" y="592"/>
      <point x="354" y="592" type="qcurve"/>
      <point x="320" y="592"/>
      <point x="273" y="547"/>
      <point x="273" y="480"/>
      <point x="320" y="432"/>
      <point x="354" y="432" type="qcurve"/>
      <point x="364" y="432"/>
      <point x="373" y="436" type="qcurve"/>
      <point x="373" y="320" type="line"/>
      <point x="354" y="320" type="line"/>
      <point x="280" y="320"/>
      <point x="170" y="416"/>
      <point x="162" y="489" type="qcurve"/>
      <point x="153" y="416"/>
      <point x="43" y="320"/>
      <point x="-31" y="320" type="qcurve"/>
      <point x="-50" y="320" type="line"/>
      <point x="-50" y="436" type="line"/>
      <point x="-41" y="432"/>
      <point x="-31" y="432" type="qcurve"/>
      <point x="3" y="432"/>
      <point x="50" y="480"/>
      <point x="50" y="547"/>
      <point x="3" y="592"/>
      <point x="-31" y="592" type="qcurve"/>
      <point x="-41" y="592"/>
      <point x="-50" y="590" type="qcurve"/>
    </contour>
  </outline>
</glyph>
<glyph name="u09B8" format="2">
  <advance width="776"/>
  <unicode hex="09B8"/>
  <outline>
    <contour>
      <point x="55" y="95" type="qcurve"/>
      <point x="130" y="220" type="line"/>
      <point x="142" y="210"/>
      <point x="152" y="205" type="qcurve"/>
      <point x="190" y="183"/>
      <point x="274" y="204"/>
      <point x="297" y="240" type="qcurve"/>
      <point x="319" y="279"/>
      <point x="270" y="346"/>
      <point x="227" y="353" type="qcurve"/>
      <point x="179" y="379"/>
      <point x="108" y="445"/>
      <point x="65" y="525"/>
      <point x="69" y="621"/>
      <point x="98" y="671" type="qcurve"/>
      <point x="0" y="671" type="line"/>
      <point x="0" y="803" type="line"/>
      <point x="776" y="803" type="line"/>
      <point x="776" y="671" type="line"/>
      <point x="755" y="671" type="line"/>
      <point x="755" y="0" type="line"/>
      <point x="603" y="0" type="line"/>
      <point x="601" y="-2" type="line"/>
      <point x="429" y="170" type="line"/>
      <point x="428" y="169"/>
      <point x="427" y="168" type="qcurve"/>
      <point x="375" y="80"/>
      <point x="170" y="29"/>
      <point x="76" y="80" type="qcurve"/>
      <point x="73" y="83"/>
      <point x="58" y="92"/>
    </contour>
    <contour>
      <point x="446" y="326" type="qcurve"/>
      <point x="446" y="328" type="line"/>
      <point x="603" y="195" type="line"/>
      <point x="603" y="671" type="line"/>
      <point x="356" y="671" type="line"/>
      <point x="346" y="664"/>
      <point x="342" y="666" type="qcurve"/>
      <point x="337" y="669"/>
      <point x="331" y="671" type="qcurve"/>
      <point x="292" y="671" type="line"/>
      <point x="266" y="660"/>
      <point x="232" y="603" type="qcurve"/>
      <point x="207" y="562"/>
      <point x="248" y="464"/>
      <point x="296" y="456" type="qcurve"/>
      <point x="414" y="393"/>
    </contour>
  </outline>
</glyph>
<glyph name="u09BD" format="2">
  <advance width="689"/>
  <unicode hex="09BD"/>
  <outline>
    <contour>
      <point x="199" y="483" type="qcurve"/>
      <point x="199" y="467" type="line"/>
      <point x="189" y="475" type="line"/>
      <point x="188" y="474"/>
      <point x="186" y="472" type="qcurve"/>
      <point x="172" y="486"/>
      <point x="154" y="503" type="qcurve"/>
      <point x="-50" y="671" type="line"/>
      <point x="-50" y="803" type="line"/>
      <point x="158" y="633" type="line"/>
      <point x="228" y="666"/>
      <point x="387" y="638"/>
      <point x="445" y="580" type="qcurve"/>
      <point x="521" y="503"/>
      <point x="519" y="291"/>
      <point x="442" y="214" type="qcurve"/>
      <point x="405" y="176"/>
      <point x="362" y="156" type="qcurve"/>
      <point x="543" y="-1" type="line"/>
      <point x="384" y="-1" type="line"/>
      <point x="176" y="153" type="line"/>
      <point x="123" y="175"/>
      <point x="81" y="217" type="qcurve"/>
      <point x="183" y="320" type="line"/>
      <point x="184" y="319" type="line"/>
      <point x="216" y="287"/>
      <point x="302" y="288"/>
      <point x="336" y="321" type="qcurve"/>
      <point x="369" y="355"/>
      <point x="370" y="441"/>
      <point x="338" y="473" type="qcurve"/>
      <point x="309" y="502"/>
      <point x="232" y="507"/>
    </contour>
  </outline>
</glyph>
<glyph name="u09BF" format="2">
  <advance width="275"/>
  <unicode hex="09BF"/>
  <outline>
    <contour>
      <point x="272" y="803" type="line"/>
      <point x="272" y="671" type="line"/>
      <point x="227" y="671" type="line"/>
      <point x="227" y="-2" type="line"/>
      <point x="75" y="-2" type="line"/>
      <point x="75" y="671" type="line"/>
      <point x="0" y="671" type="line"/>
      <point x="0" y="803" type="line"/>
      <point x="75" y="803" type="line"/>
      <point x="77" y="803" type="line"/>
      <point x="76" y="814"/>
      <point x="76" y="825" type="qcurve"/>
      <point x="76" y="932"/>
      <point x="226" y="1083"/>
      <point x="440" y="1083"/>
      <point x="591" y="932"/>
      <point x="591" y="825" type="qcurve"/>
      <point x="591" y="812"/>
      <point x="590" y="799" type="qcurve"/>
      <point x="437" y="799" type="line"/>
      <point x="440" y="812"/>
      <point x="440" y="825" type="qcurve"/>
      <point x="440" y="870"/>
      <point x="378" y="932"/>
      <point x="333" y="932" type="qcurve"/>
      <point x="289" y="932"/>
      <point x="227" y="870"/>
      <point x="227" y="825" type="qcurve"/>
      <point x="227" y="814"/>
      <point x="229" y="803" type="qcurve"/>
    </contour>
  </outline>
</glyph>
<glyph name="u09C0" format="2">
  <advance width="247"/>
  <unicode hex="09C0"/>
  <outline>
    <contour>
      <point x="244" y="803" type="line"/>
      <point x="244" y="671" type="line"/>
      <point x="199" y="671" type="line"/>
      <point x="199" y="-2" type="line"/>
      <point x="47" y="-2" type="line"/>
      <point x="47" y="671" type="line"/>
      <point x="-3" y="671" type="line"/>
      <point x="-3" y="803" type="line"/>
      <point x="47" y="803" type="line"/>
      <point x="48" y="803" type="line"/>
      <point x="50" y="816"/>
      <point x="50" y="832" type="qcurve"/>
      <point x="50" y="877"/>
      <point x="-12" y="939"/>
      <point x="-57" y="939" type="qcurve"/>
      <point x="-101" y="939"/>
      <point x="-163" y="877"/>
      <point x="-163" y="832" type="qcurve"/>
      <point x="-163" y="819"/>
      <point x="-160" y="806" type="qcurve"/>
      <point x="-313" y="806" type="line"/>
      <point x="-314" y="819"/>
      <point x="-314" y="832" type="qcurve"/>
      <point x="-314" y="939"/>
      <point x="-164" y="1090"/>
      <point x="50" y="1090"/>
      <point x="201" y="939"/>
      <point x="201" y="832" type="qcurve"/>
      <point x="201" y="816"/>
      <point x="200" y="803" type="qcurve"/>
    </contour>
  </outline>
</glyph>
<glyph name="u09C2" format="2">
  <advance width="0"/>
  <unicode hex="09C2"/>
  <outline>
    <contour>
      <point x="-27" y="16" type="line"/>
      <point x="353" y="-178" type="line"/>
      <point x="292" y="-284" type="line"/>
      <point x="51" y="-161" type="line"/>
      <point x="22" y="-262"/>
      <point x="-161" y="-365"/>
      <point x="-262" y="-338" type="qcurve"/>
      <point x="-366" y="-310"/>
      <point x="-472" y="-126"/>
      <point x="-445" y="-22" type="qcurve"/>
      <point x="-441" y="-9"/>
      <point x="-437" y="3" type="qcurve"/>
      <point x="-289" y="-37" type="line"/>
      <point x="-295" y="-48"/>
      <point x="-299" y="-61" type="qcurve"/>
      <point x="-310" y="-105"/>
      <point x="-266" y="-181"/>
      <point x="-223" y="-192" type="qcurve"/>
      <point x="-180" y="-204"/>
      <point x="-105" y="-160"/>
      <point x="-93" y="-116" type="qcurve"/>
      <point x="-89" y="-103"/>
      <point x="-89" y="-90" type="qcurve"/>
      <point x="-87" y="-91" type="line"/>
      <point x="-89" y="-90" type="line"/>
    </contour>
  </outline>
</glyph>
<glyph name="u09E1" format="2">
  <advance width="779"/>
  <unicode hex="09E1"/>
  <outline>
    <contour>
      <point x="259" y="-146" type="line"/>
      <point x="259" y="-141"/>
      <point x="259" y="-136" type="qcurve"/>
      <point x="259" y="-93"/>
      <point x="319" y="-33"/>
      <point x="362" y="-33" type="qcurve"/>
      <point x="390" y="-33"/>
      <point x="437" y="-60"/>
      <point x="450" y="-84" type="qcurve"/>
      <point x="463" y="-33"/>
      <point x="425" y="5" type="qcurve"/>
      <point x="398" y="33"/>
      <point x="321" y="34"/>
      <point x="294" y="7" type="qcurve"/>
      <point x="283" y="-4"/>
      <point x="277" y="-17" type="qcurve"/>
      <point x="231" y="29" type="line"/>
      <point x="239" y="41"/>
      <point x="250" y="51" type="qcurve"/>
      <point x="294" y="96"/>
      <point x="423" y="94"/>
      <point x="515" y="2"/>
      <point x="517" y="-127"/>
      <point x="472" y="-171" type="qcurve"/>
      <point x="462" y="-182"/>
      <point x="450" y="-190" type="qcurve"/>
      <point x="406" y="-146" type="line"/>
      <point x="403" y="-146" type="line"/>
      <point x="403" y="-145"/>
      <point x="404" y="-144" type="qcurve"/>
      <point x="403" y="-143" type="line"/>
      <point x="404" y="-142" type="line"/>
      <point x="404" y="-139"/>
      <point x="404" y="-136" type="qcurve"/>
      <point x="404" y="-118"/>
      <point x="380" y="-93"/>
      <point x="362" y="-93" type="qcurve"/>
      <point x="344" y="-93"/>
      <point x="319" y="-118"/>
      <point x="319" y="-136" type="qcurve"/>
      <point x="319" y="-141"/>
      <point x="320" y="-146" type="qcurve"/>
    </contour>
    <contour>
      <point x="49" y="104" type="line"/>
      <point x="48" y="117"/>
      <point x="48" y="130" type="qcurve"/>
      <point x="48" y="237"/>
      <point x="198" y="388"/>
      <point x="305" y="388" type="qcurve"/>
      <point x="375" y="388"/>
      <point x="493" y="319"/>
      <point x="527" y="261" type="qcurve"/>
      <point x="541" y="320"/>
      <point x="509" y="438"/>
      <point x="464" y="483" type="qcurve"/>
      <point x="395" y="552"/>
      <point x="203" y="555"/>
      <point x="136" y="487" type="qcurve"/>
      <point x="109" y="461"/>
      <point x="93" y="427" type="qcurve"/>
      <point x="-22" y="542" type="line"/>
      <point x="-1" y="572"/>
      <point x="25" y="598" type="qcurve"/>
      <point x="98" y="672"/>
      <point x="297" y="722"/>
      <point x="498" y="666"/>
      <point x="574" y="590" type="qcurve"/>
      <point x="649" y="514"/>
      <point x="705" y="314"/>
      <point x="655" y="115"/>
      <point x="581" y="42" type="qcurve"/>
      <point x="555" y="16"/>
      <point x="525" y="-5" type="qcurve"/>
      <point x="416" y="104" type="line"/>
      <point x="409" y="104" type="line"/>
      <point x="409" y="107"/>
      <point x="410" y="110" type="qcurve"/>
      <point x="407" y="113" type="line"/>
      <point x="409" y="113"/>
      <point x="411" y="114" type="qcurve"/>
      <point x="412" y="122"/>
      <point x="412" y="130" type="qcurve"/>
      <point x="412" y="175"/>
      <point x="350" y="237"/>
      <point x="305" y="237" type="qcurve"/>
      <point x="261" y="237"/>
      <point x="199" y="175"/>
      <point x="199" y="130" type="qcurve"/>
      <point x="199" y="117"/>
      <point x="202" y="104" type="qcurve"/>
    </contour>
  </outline>
</glyph>
<glyph name="u09E2" format="2">
  <advance width="0"/>
  <unicode hex="09E2"/>
  <outline>
    <contour>
      <point x="-163" y="-146" type="line"/>
      <point x="-164" y="-141"/>
      <point x="-164" y="-136" type="qcurve"/>
      <point x="-164" y="-93"/>
      <point x="-104" y="-33"/>
      <point x="-61" y="-33" type="qcurve"/>
      <point x="-33" y="-33"/>
      <point x="14" y="-60"/>
      <point x="28" y="-84" type="qcurve"/>
      <point x="40" y="-33"/>
      <point x="3" y="5" type="qcurve"/>
      <point x="-25" y="33"/>
      <point x="-102" y="34"/>
      <point x="-129" y="7" type="qcurve"/>
      <point x="-139" y="-4"/>
      <point x="-146" y="-17" type="qcurve"/>
      <point x="-192" y="29" type="line"/>
      <point x="-183" y="41"/>
      <point x="-173" y="51" type="qcurve"/>
      <point x="-128" y="96"/>
      <point x="0" y="94"/>
      <point x="93" y="2"/>
      <point x="94" y="-127"/>
      <point x="50" y="-171" type="qcurve"/>
      <point x="39" y="-182"/>
      <point x="27" y="-190" type="qcurve"/>
      <point x="-16" y="-146" type="line"/>
      <point x="-19" y="-146" type="line"/>
      <point x="-19" y="-145"/>
      <point x="-19" y="-144" type="qcurve"/>
      <point x="-20" y="-143" type="line"/>
      <point x="-19" y="-143"/>
      <point x="-19" y="-142" type="qcurve"/>
      <point x="-18" y="-139"/>
      <point x="-18" y="-136" type="qcurve"/>
      <point x="-18" y="-118"/>
      <point x="-43" y="-93"/>
      <point x="-61" y="-93" type="qcurve"/>
      <point x="-79" y="-93"/>
      <point x="-103" y="-118"/>
      <point x="-103" y="-136" type="qcurve"/>
      <point x="-103" y="-141"/>
      <point x="-102" y="-146" type="qcurve"/>
    </contour>
  </outline>
</glyph>
<glyph name="u09E7" format="2">
  <advance width="555"/>
  <unicode hex="09E7"/>
  <outline>
    <contour>
      <point x="123" y="147" type="qcurve"/>
      <point x="218" y="147"/>
      <point x="352" y="284"/>
      <point x="352" y="381" type="qcurve"/>
      <point x="352" y="479"/>
      <point x="218" y="616"/>
      <point x="123" y="616" type="qcurve"/>
      <point x="85" y="616"/>
      <point x="50" y="604" type="qcurve"/>
      <point x="50" y="766" type="line"/>
      <point x="86" y="773"/>
      <point x="123" y="773" type="qcurve"/>
      <point x="281" y="773"/>
      <point x="505" y="542"/>
      <point x="505" y="216"/>
      <point x="281" y="-14"/>
      <point x="123" y="-14" type="qcurve"/>
      <point x="86" y="-14"/>
      <point x="50" y="-7" type="qcurve"/>
      <point x="50" y="159" type="line"/>
      <point x="85" y="147"/>
    </contour>
  </outline>
</glyph>
<glyph name="u09EB" format="2">
  <advance width="779"/>
  <unicode hex="09EB"/>
  <outline>
    <contour>
      <point x="357.724" y="384" type="line"/>
      <point x="356.724" y="385" type="line"/>
    </contour>
    <contour>
      <point x="738.724" y="479" type="qcurve"/>
      <point x="661.724" y="347" type="line"/>
      <point x="652.724" y="356"/>
      <point x="640.724" y="363" type="qcurve"/>
      <point x="601.724" y="385"/>
      <point x="517.724" y="363"/>
      <point x="494.724" y="324" type="qcurve"/>
      <point x="472.724" y="285"/>
      <point x="495.724" y="201"/>
      <point x="534.724" y="178" type="qcurve"/>
      <point x="540.724" y="174"/>
      <point x="548.724" y="171" type="qcurve"/>
      <point x="549.724" y="172"/>
      <point x="551.724" y="173" type="qcurve"/>
      <point x="552.724" y="170" type="line"/>
      <point x="555.724" y="169"/>
      <point x="558.724" y="168" type="qcurve"/>
      <point x="554.724" y="161" type="line"/>
      <point x="594.724" y="13" type="line"/>
      <point x="561.724" y="-3"/>
      <point x="525.724" y="-13" type="qcurve"/>
      <point x="425.724" y="-40"/>
      <point x="228.724" y="16"/>
      <point x="82.7236" y="165"/>
      <point x="54.7236" y="268" type="qcurve"/>
      <point x="32.7236" y="347"/>
      <point x="55.7236" y="501"/>
      <point x="125.724" y="631"/>
      <point x="246.724" y="727"/>
      <point x="321.724" y="747" type="qcurve"/>
      <point x="357.724" y="757"/>
      <point x="394.724" y="759" type="qcurve"/>
      <point x="436.724" y="603" type="line"/>
      <point x="411.724" y="605"/>
      <point x="386.724" y="601" type="qcurve"/>
      <point x="492.724" y="478" type="line"/>
      <point x="495.724" y="479"/>
      <point x="533.724" y="490"/>
      <point x="546.724" y="494"/>
      <point x="582.724" y="503"/>
      <point x="601.724" y="506"/>
      <point x="633.724" y="511"/>
      <point x="655.724" y="509"/>
      <point x="682.724" y="507"/>
      <point x="705.724" y="499"/>
      <point x="716.724" y="493" type="qcurve"/>
      <point x="727.724" y="487"/>
    </contour>
    <contour>
      <point x="356.724" y="385" type="qcurve"/>
      <point x="240.724" y="513" type="line"/>
      <point x="208.724" y="471"/>
      <point x="187.724" y="366"/>
      <point x="202.724" y="309" type="qcurve"/>
      <point x="218.724" y="248"/>
      <point x="305.724" y="161"/>
      <point x="362.724" y="144" type="qcurve"/>
      <point x="331.724" y="199"/>
      <point x="327.724" y="325"/>
    </contour>
  </outline>
</glyph>
<glyph name="u09EC" format="2">
  <advance width="616"/>
  <unicode hex="09EC"/>
  <outline>
    <contour>
      <point x="303.946" y="751" type="line"/>
      <point x="435.946" y="751" type="line"/>
      <point x="435.946" y="484" type="line"/>
      <point x="495.946" y="450"/>
      <point x="566.946" y="331"/>
      <point x="564.946" y="260" type="qcurve"/>
      <point x="561.946" y="151"/>
      <point x="411.946" y="3"/>
      <point x="303.946" y="3" type="qcurve"/>
      <point x="241.946" y="3"/>
      <point x="143.946" y="47"/>
      <point x="82.9463" y="121"/>
      <point x="50.9463" y="212"/>
      <point x="50.9463" y="261" type="qcurve"/>
      <point x="195.946" y="261" type="line"/>
      <point x="195.946" y="260" type="line"/>
      <point x="195.946" y="215"/>
      <point x="257.946" y="155"/>
      <point x="304.946" y="154" type="qcurve"/>
      <point x="351.946" y="155"/>
      <point x="413.946" y="215"/>
      <point x="413.946" y="260" type="qcurve"/>
      <point x="413.946" y="302"/>
      <point x="360.946" y="361"/>
      <point x="318.946" y="366" type="qcurve"/>
      <point x="303.946" y="366" type="line"/>
      <point x="303.946" y="518" type="line"/>
      <point x="303.946" y="518" type="line"/>
    </contour>
  </outline>
</glyph>
<glyph name="u09EE" format="2">
  <advance width="692"/>
  <unicode hex="09EE"/>
  <outline>
    <contour>
      <point x="203.5" y="781" type="line"/>
      <point x="203.5" y="518" type="line"/>
      <point x="211.5" y="519"/>
      <point x="227.5" y="519" type="qcurve"/>
      <point x="241.5" y="519"/>
      <point x="256.5" y="517" type="qcurve"/>
      <point x="640.5" y="517" type="line"/>
      <point x="640.5" y="365" type="line"/>
      <point x="463.5" y="365" type="line"/>
      <point x="485.5" y="315"/>
      <point x="485.5" y="261" type="qcurve"/>
      <point x="485.5" y="154"/>
      <point x="334.5" y="4"/>
      <point x="227.5" y="4" type="qcurve"/>
      <point x="221.5" y="3.5" type="line" smooth="yes"/>
      <point x="215.5" y="3"/>
      <point x="202.5" y="3"/>
      <point x="181.5" y="4"/>
      <point x="161.5" y="5"/>
      <point x="138.5" y="9"/>
      <point x="118.5" y="15"/>
      <point x="98.5" y="25"/>
      <point x="90.5" y="32" type="qcurve"/>
      <point x="73.5" y="46"/>
      <point x="54.5" y="106"/>
      <point x="52.5" y="129" type="qcurve"/>
      <point x="51.5" y="153" type="line"/>
      <point x="51.5" y="781" type="line"/>
    </contour>
    <contour>
      <point x="203.5" y="158" type="line"/>
      <point x="215.5" y="155"/>
      <point x="227.5" y="155" type="qcurve"/>
      <point x="272.5" y="155"/>
      <point x="334.5" y="216"/>
      <point x="334.5" y="261" type="qcurve"/>
      <point x="334.5" y="299"/>
      <point x="287.5" y="357"/>
      <point x="251.5" y="365" type="qcurve"/>
      <point x="205.5" y="365" type="line"/>
      <point x="204.5" y="365"/>
      <point x="203.5" y="365" type="qcurve"/>
    </contour>
  </outline>
</glyph>
<glyph name="u09EF" format="2">
  <advance width="779"/>
  <unicode hex="09EF"/>
  <outline>
    <contour>
      <point x="103.604" y="104" type="line"/>
      <point x="102.604" y="117"/>
      <point x="102.604" y="130" type="qcurve"/>
      <point x="102.604" y="237"/>
      <point x="252.604" y="388"/>
      <point x="359.604" y="388" type="qcurve"/>
      <point x="429.604" y="388"/>
      <point x="547.604" y="319"/>
      <point x="581.604" y="261" type="qcurve"/>
      <point x="595.604" y="320"/>
      <point x="563.604" y="438"/>
      <point x="518.604" y="483" type="qcurve"/>
      <point x="449.604" y="552"/>
      <point x="257.604" y="555"/>
      <point x="190.604" y="487" type="qcurve"/>
      <point x="163.604" y="461"/>
      <point x="147.604" y="427" type="qcurve"/>
      <point x="32.6035" y="542" type="line"/>
      <point x="53.6035" y="572"/>
      <point x="79.6035" y="598" type="qcurve"/>
      <point x="152.604" y="672"/>
      <point x="351.604" y="722"/>
      <point x="552.604" y="666"/>
      <point x="628.604" y="590" type="qcurve"/>
      <point x="703.604" y="514"/>
      <point x="759.604" y="314"/>
      <point x="709.604" y="115"/>
      <point x="635.604" y="42" type="qcurve"/>
      <point x="609.604" y="16"/>
      <point x="579.604" y="-5" type="qcurve"/>
      <point x="470.604" y="104" type="line"/>
      <point x="463.604" y="104" type="line"/>
      <point x="463.604" y="107"/>
      <point x="464.604" y="110" type="qcurve"/>
      <point x="461.604" y="113" type="line"/>
      <point x="463.604" y="113"/>
      <point x="465.604" y="114" type="qcurve"/>
      <point x="466.604" y="122"/>
      <point x="466.604" y="130" type="qcurve"/>
      <point x="466.604" y="175"/>
      <point x="404.604" y="237"/>
      <point x="359.604" y="237" type="qcurve"/>
      <point x="315.604" y="237"/>
      <point x="253.604" y="175"/>
      <point x="253.604" y="130" type="qcurve"/>
      <point x="253.604" y="117"/>
      <point x="256.604" y="104" type="qcurve"/>
    </contour>
  </outline>
</glyph>
<glyph name="u09F5" format="2">
  <advance width="1069"/>
  <unicode hex="09F5"/>
  <outline>
    <contour>
      <point x="159" y="637" type="line"/>
      <point x="172" y="638"/>
      <point x="185" y="638" type="qcurve"/>
      <point x="292" y="638"/>
      <point x="443" y="488"/>
      <point x="443" y="381" type="qcurve"/>
      <point x="443" y="311"/>
      <point x="374" y="193"/>
      <point x="316" y="159" type="qcurve"/>
      <point x="375" y="145"/>
      <point x="494" y="178"/>
      <point x="538" y="222" type="qcurve"/>
      <point x="841" y="510" type="line"/>
      <point x="1019" y="434" type="line"/>
      <point x="705" y="121" type="line"/>
      <point x="630" y="46"/>
      <point x="400" y="-15"/>
      <point x="170" y="32"/>
      <point x="97" y="105" type="qcurve"/>
      <point x="71" y="131"/>
      <point x="50" y="162" type="qcurve"/>
      <point x="159" y="270" type="line"/>
      <point x="159" y="278" type="line"/>
      <point x="162" y="277"/>
      <point x="165" y="276" type="qcurve"/>
      <point x="168" y="279" type="line"/>
      <point x="169" y="277"/>
      <point x="169" y="276" type="qcurve"/>
      <point x="177" y="274"/>
      <point x="185" y="274" type="qcurve"/>
      <point x="230" y="274"/>
      <point x="292" y="336"/>
      <point x="292" y="381" type="qcurve"/>
      <point x="292" y="426"/>
      <point x="230" y="487"/>
      <point x="185" y="487" type="qcurve"/>
      <point x="172" y="487"/>
      <point x="159" y="484" type="qcurve"/>
    </contour>
  </outline>
</glyph>
<glyph name="u09F6" format="2">
  <advance width="813"/>
  <unicode hex="09F6"/>
  <outline>
    <contour>
      <point x="159" y="637" type="line"/>
      <point x="172" y="638"/>
      <point x="185" y="638" type="qcurve"/>
      <point x="292" y="638"/>
      <point x="443" y="488"/>
      <point x="443" y="381" type="qcurve"/>
      <point x="443" y="311"/>
      <point x="374" y="193"/>
      <point x="316" y="159" type="qcurve"/>
      <point x="375" y="145"/>
      <point x="494" y="178"/>
      <point x="538" y="222" type="qcurve"/>
      <point x="607" y="291"/>
      <point x="610" y="483"/>
      <point x="543" y="550" type="qcurve"/>
      <point x="516" y="577"/>
      <point x="482" y="593" type="qcurve"/>
      <point x="597" y="708" type="line"/>
      <point x="627" y="687"/>
      <point x="654" y="661" type="qcurve"/>
      <point x="727" y="588"/>
      <point x="777" y="389"/>
      <point x="721" y="188"/>
      <point x="645" y="113" type="qcurve"/>
      <point x="570" y="37"/>
      <point x="369" y="-19"/>
      <point x="170" y="31"/>
      <point x="97" y="105" type="qcurve"/>
      <point x="71" y="131"/>
      <point x="50" y="162" type="qcurve"/>
      <point x="159" y="270" type="line"/>
      <point x="159" y="278" type="line"/>
      <point x="162" y="277"/>
      <point x="165" y="276" type="qcurve"/>
      <point x="168" y="279" type="line"/>
      <point x="169" y="277"/>
      <point x="169" y="276" type="qcurve"/>
      <point x="177" y="274"/>
      <point x="185" y="274" type="qcurve"/>
      <point x="230" y="274"/>
      <point x="292" y="336"/>
      <point x="292" y="381" type="qcurve"/>
      <point x="292" y="426"/>
      <point x="230" y="487"/>
      <point x="185" y="487" type="qcurve"/>
      <point x="172" y="487"/>
      <point x="159" y="484" type="qcurve"/>
    </contour>
  </outline>
</glyph>
<glyph name="u09F7" format="2">
  <advance width="262"/>
  <unicode hex="09F7"/>
  <outline>
    <contour>
      <point x="65" y="612" type="qcurve"/>
      <point x="197" y="612" type="line"/>
      <point x="203" y="612"/>
      <point x="212" y="603"/>
      <point x="212" y="597" type="qcurve"/>
      <point x="212" y="5" type="line"/>
      <point x="212" y="-1"/>
      <point x="203" y="-10"/>
      <point x="197" y="-10" type="qcurve"/>
      <point x="65" y="-10" type="line"/>
      <point x="59" y="-10"/>
      <point x="50" y="-1"/>
      <point x="50" y="5" type="qcurve"/>
      <point x="50" y="597" type="line"/>
      <point x="50" y="603"/>
      <point x="59" y="612"/>
    </contour>
  </outline>
</glyph>
<glyph name="u09F9" format="2">
  <advance width="712"/>
  <unicode hex="09F9"/>
  <outline>
    <contour>
      <point x="540" y="378" type="qcurve"/>
      <point x="540" y="465"/>
      <point x="433" y="589"/>
      <point x="280" y="589"/>
      <point x="172" y="465"/>
      <point x="172" y="378" type="qcurve"/>
      <point x="172" y="290"/>
      <point x="280" y="167"/>
      <point x="433" y="167"/>
      <point x="540" y="290"/>
    </contour>
    <contour>
      <point x="662" y="380" type="qcurve"/>
      <point x="662" y="283"/>
      <point x="580" y="120"/>
      <point x="440" y="25"/>
      <point x="273" y="25"/>
      <point x="132" y="120"/>
      <point x="50" y="283"/>
      <point x="50" y="380" type="qcurve"/>
      <point x="50" y="476"/>
      <point x="132" y="639"/>
      <point x="273" y="734"/>
      <point x="440" y="734"/>
      <point x="580" y="639"/>
      <point x="662" y="476"/>
    </contour>
  </outline>
</glyph>
<glyph name="u09FA" format="2">
  <advance width="486"/>
  <unicode hex="09FA"/>
  <outline>
    <contour>
      <point x="182" y="511" type="line"/>
      <point x="182" y="625" type="line"/>
      <point x="304" y="625" type="line"/>
      <point x="304" y="511" type="line"/>
    </contour>
    <contour>
      <point x="436" y="472" type="line"/>
      <point x="436" y="453" type="line"/>
      <point x="436" y="372"/>
      <point x="324" y="259"/>
      <point x="244" y="259" type="qcurve"/>
      <point x="163" y="259"/>
      <point x="50" y="372"/>
      <point x="50" y="453" type="qcurve"/>
      <point x="50" y="472" type="line"/>
      <point x="166" y="472" type="line"/>
      <point x="163" y="463"/>
      <point x="163" y="453" type="qcurve"/>
      <point x="163" y="419"/>
      <point x="210" y="372"/>
      <point x="278" y="372"/>
      <point x="323" y="419"/>
      <point x="323" y="453" type="qcurve"/>
      <point x="323" y="463"/>
      <point x="320" y="472" type="qcurve"/>
    </contour>
  </outline>
</glyph>
<glyph name="u09FC" format="2">
  <advance width="400"/>
  <unicode hex="09FC"/>
  <outline>
    <contour>
      <point x="176" y="216" type="line"/>
      <point x="341" y="69" type="line"/>
      <point x="235" y="8" type="line"/>
      <point x="70" y="155" type="line"/>
    </contour>
    <contour>
      <point x="89" y="511" type="line"/>
      <point x="89" y="625" type="line"/>
      <point x="211" y="625" type="line"/>
      <point x="211" y="511" type="line"/>
    </contour>
    <contour>
      <point x="343" y="472" type="line"/>
      <point x="343" y="453" type="line"/>
      <point x="343" y="372"/>
      <point x="231" y="259"/>
      <point x="151" y="259" type="qcurve"/>
      <point x="70" y="259"/>
      <point x="-43" y="372"/>
      <point x="-43" y="453" type="qcurve"/>
      <point x="-43" y="472" type="line"/>
      <point x="73" y="472" type="line"/>
      <point x="70" y="463"/>
      <point x="70" y="453" type="qcurve"/>
      <point x="70" y="419"/>
      <point x="117" y="372"/>
      <point x="185" y="372"/>
      <point x="230" y="419"/>
      <point x="230" y="453" type="qcurve"/>
      <point x="230" y="463"/>
      <point x="227" y="472" type="qcurve"/>
    </contour>
  </outline>
</glyph>
<glyph name="uni1E9E" format="2">
  <advance width="771"/>
  <unicode hex="1E9E"/>
  <outline>
    <contour>
      <point x="189" y="47" type="qcurve"/>
      <point x="256" y="159" type="line"/>
      <point x="263" y="152"/>
      <point x="278" y="147" type="qcurve"/>
      <point x="318" y="130"/>
      <point x="381" y="138"/>
      <point x="401" y="162" type="qcurve"/>
      <point x="424" y="189"/>
      <point x="379" y="201" type="qcurve"/>
      <point x="367" y="204"/>
      <point x="325" y="211" type="qcurve"/>
      <point x="278" y="230"/>
      <point x="204" y="310"/>
      <point x="168" y="401"/>
      <point x="173" y="497"/>
      <point x="201" y="529" type="qcurve"/>
      <point x="209" y="539"/>
      <point x="243" y="583"/>
      <point x="261" y="604"/>
      <point x="294" y="637"/>
      <point x="322" y="650"/>
      <point x="361" y="661"/>
      <point x="406" y="654"/>
      <point x="432" y="644" type="qcurve"/>
      <point x="433" y="644"/>
      <point x="434" y="644" type="qcurve"/>
      <point x="450" y="644"/>
      <point x="486" y="635"/>
      <point x="510" y="627"/>
      <point x="531" y="625"/>
      <point x="541" y="639"/>
      <point x="541" y="656" type="qcurve"/>
      <point x="541" y="686"/>
      <point x="350" y="718"/>
      <point x="144" y="707"/>
      <point x="123" y="683" type="qcurve"/>
      <point x="123" y="2" type="line"/>
      <point x="-44" y="2" type="line"/>
      <point x="-41" y="684" type="line"/>
      <point x="-17" y="767"/>
      <point x="50" y="819" type="qcurve"/>
      <point x="91" y="851"/>
      <point x="249" y="876"/>
      <point x="425" y="856"/>
      <point x="586" y="807"/>
      <point x="692" y="713"/>
      <point x="692" y="656" type="qcurve"/>
      <point x="692" y="579"/>
      <point x="669" y="495"/>
      <point x="629" y="474"/>
      <point x="579" y="485"/>
      <point x="518" y="512"/>
      <point x="460" y="532"/>
      <point x="399" y="522"/>
      <point x="376" y="495" type="qcurve"/>
      <point x="360" y="477"/>
      <point x="351" y="423"/>
      <point x="377" y="375"/>
      <point x="407" y="370" type="qcurve"/>
      <point x="451" y="351"/>
      <point x="530" y="279"/>
      <point x="576" y="195"/>
      <point x="581" y="108"/>
      <point x="553" y="75" type="qcurve"/>
      <point x="506" y="18"/>
      <point x="306" y="-7"/>
      <point x="211" y="34" type="qcurve"/>
      <point x="203" y="36"/>
    </contour>
  </outline>
</glyph>
<glyph name="uni20B9" format="2">
  <advance width="826"/>
  <unicode hex="20B9"/>
  <outline>
    <contour>
      <point x="726" y="803" type="line"/>
      <point x="726" y="671" type="line"/>
      <point x="387" y="671" type="line"/>
      <point x="464" y="650"/>
      <point x="568" y="528"/>
      <point x="576" y="448" type="qcurve"/>
      <point x="711" y="448" type="line"/>
      <point x="717" y="448"/>
      <point x="726" y="439"/>
      <point x="726" y="433" type="qcurve"/>
      <point x="726" y="385" type="line"/>
      <point x="726" y="379"/>
      <point x="717" y="370"/>
      <point x="711" y="370" type="qcurve"/>
      <point x="572" y="370" type="line"/>
      <point x="559" y="310"/>
      <point x="484" y="215"/>
      <point x="430" y="190" type="qcurve"/>
      <point x="666" y="-37" type="line"/>
      <point x="573" y="-130" type="line"/>
      <point x="198" y="229" type="line"/>
      <point x="291" y="322" type="line"/>
      <point x="295" y="319" type="line"/>
      <point x="307" y="316"/>
      <point x="319" y="316" type="qcurve"/>
      <point x="349" y="316"/>
      <point x="399" y="345"/>
      <point x="412" y="370" type="qcurve"/>
      <point x="147" y="370" type="line"/>
      <point x="141" y="370"/>
      <point x="132" y="379"/>
      <point x="132" y="385" type="qcurve"/>
      <point x="132" y="433" type="line"/>
      <point x="132" y="439"/>
      <point x="141" y="448"/>
      <point x="147" y="448" type="qcurve"/>
      <point x="423" y="448" type="line"/>
      <point x="415" y="483"/>
      <point x="357" y="529"/>
      <point x="319" y="529" type="qcurve"/>
      <point x="306" y="529"/>
      <point x="293" y="526" type="qcurve"/>
      <point x="293" y="671" type="line"/>
      <point x="0" y="671" type="line"/>
      <point x="0" y="803" type="line"/>
    </contour>
  </outline>
</glyph>
<glyph name=".notdef" format="2">
  <advance width="1000"/>
  <outline>
    <contour>
      <point x="208" y="794" type="qcurve"/>
      <point x="668" y="794" type="line"/>
      <point x="674" y="794"/>
      <point x="683" y="785"/>
      <point x="683" y="779" type="qcurve"/>
      <point x="683" y="15" type="line"/>
      <point x="683" y="9"/>
      <point x="674" y="0"/>
      <point x="668" y="0" type="qcurve"/>
      <point x="208" y="0" type="line"/>
      <point x="202" y="0"/>
      <point x="193" y="9"/>
      <point x="193" y="15" type="qcurve"/>
      <point x="193" y="779" type="line"/>
      <point x="193" y="785"/>
      <point x="202" y="794"/>
    </contour>
    <contour>
      <point x="258" y="732" type="line"/>
      <point x="252" y="732"/>
      <point x="243" y="723"/>
      <point x="243" y="717" type="qcurve"/>
      <point x="243" y="81" type="line"/>
      <point x="243" y="75"/>
      <point x="252" y="66"/>
      <point x="258" y="66" type="qcurve"/>
      <point x="620" y="66" type="line"/>
      <point x="626" y="66"/>
      <point x="635" y="75"/>
      <point x="635" y="81" type="qcurve"/>
      <point x="635" y="717" type="line"/>
      <point x="635" y="723"/>
      <point x="626" y="732"/>
      <point x="620" y="732" type="qcurve"/>
    </contour>
    <contour>
      <point x="371" y="621" type="line"/>
      <point x="375" y="621"/>
      <point x="384" y="621" type="qcurve"/>
      <point x="438" y="621"/>
      <point x="513" y="546"/>
      <point x="513" y="493" type="qcurve"/>
      <point x="513" y="457"/>
      <point x="477" y="397"/>
      <point x="447" y="380" type="qcurve"/>
      <point x="447" y="322" type="line"/>
      <point x="371" y="322" type="line"/>
      <point x="371" y="364" type="line"/>
      <point x="371" y="427" type="line"/>
      <point x="371" y="441" type="line"/>
      <point x="377" y="439"/>
      <point x="384" y="439" type="qcurve"/>
      <point x="406" y="439"/>
      <point x="438" y="470"/>
      <point x="438" y="493" type="qcurve"/>
      <point x="438" y="515"/>
      <point x="406" y="546"/>
      <point x="384" y="546" type="qcurve"/>
      <point x="377" y="546"/>
      <point x="371" y="544" type="qcurve"/>
    </contour>
    <contour>
      <point x="371" y="206" type="line"/>
      <point x="371" y="277" type="line"/>
      <point x="447" y="277" type="line"/>
      <point x="447" y="206" type="line"/>
    </contour>
  </outline>
</glyph>
<glyph name="u098B.0" format="2">
  <advance width="1344"/>
  <outline>
    <contour>
      <point x="872" y="787" type="line"/>
      <point x="872" y="724" type="line"/>
      <point x="688" y="724" type="line"/>
      <point x="686" y="711" type="line"/>
      <point x="686" y="723" type="line"/>
      <point x="570" y="723" type="line"/>
      <point x="573" y="714"/>
      <point x="573" y="704" type="qcurve"/>
      <point x="573" y="670"/>
      <point x="551" y="647" type="qcurve"/>
      <point x="528" y="623"/>
      <point x="494" y="623" type="qcurve"/>
      <point x="460" y="623"/>
      <point x="437" y="647" type="qcurve"/>
      <point x="413" y="670"/>
      <point x="413" y="704" type="qcurve"/>
      <point x="413" y="714"/>
      <point x="416" y="723" type="qcurve"/>
      <point x="386" y="723" type="line"/>
      <point x="300" y="723" type="line"/>
      <point x="270" y="723" type="line"/>
      <point x="273" y="714"/>
      <point x="273" y="704" type="qcurve"/>
      <point x="273" y="670"/>
      <point x="251" y="647" type="qcurve"/>
      <point x="228" y="623"/>
      <point x="194" y="623" type="qcurve"/>
      <point x="160" y="623"/>
      <point x="137" y="647" type="qcurve"/>
      <point x="113" y="670"/>
      <point x="113" y="704" type="qcurve"/>
      <point x="113" y="714"/>
      <point x="116" y="723" type="qcurve"/>
      <point x="0" y="723" type="line"/>
      <point x="0" y="704" type="line"/>
      <point x="0" y="623"/>
      <point x="57" y="567" type="qcurve"/>
      <point x="113" y="510"/>
      <point x="194" y="510" type="qcurve"/>
      <point x="238" y="510"/>
      <point x="277" y="529" type="qcurve"/>
      <point x="316" y="548"/>
      <point x="343" y="581" type="qcurve"/>
      <point x="370" y="548"/>
      <point x="410" y="529" type="qcurve"/>
      <point x="449" y="510"/>
      <point x="494" y="510" type="qcurve"/>
      <point x="556" y="510"/>
      <point x="606" y="546" type="qcurve"/>
      <point x="655" y="582"/>
      <point x="675" y="639" type="qcurve"/>
      <point x="665" y="572" type="line"/>
      <point x="418" y="342" type="line"/>
      <point x="418" y="190" type="line"/>
      <point x="871" y="11" type="line"/>
      <point x="872" y="11" type="line"/>
      <point x="1018" y="11" type="line"/>
      <point x="1018" y="80" type="line"/>
      <point x="1090" y="8" type="line"/>
      <point x="1093" y="10" type="line"/>
      <point x="1244" y="10" type="line"/>
      <point x="1244" y="673" type="line"/>
      <point x="1294" y="673" type="line"/>
      <point x="1294" y="805" type="line"/>
      <point x="1094" y="805" type="line"/>
      <point x="1094" y="786" type="line"/>
      <point x="1092" y="786" type="line"/>
      <point x="1092" y="221" type="line"/>
      <point x="1018" y="296" type="line"/>
      <point x="1018" y="787" type="line"/>
    </contour>
    <contour>
      <point x="871" y="170" type="line"/>
      <point x="562" y="284" type="line"/>
      <point x="703" y="455" type="line"/>
      <point x="704" y="454" type="line"/>
      <point x="871" y="719" type="line"/>
    </contour>
  </outline>
</glyph>
